<svg xmlns="http://www.w3.org/2000/svg" viewBox="0 0 760 560" role="img" aria-label="Frontal tract view"><style>
.f-nose,.f-chin{fill:none;stroke:#8b6758;stroke-width:2}
.f-upper-lip,.f-lower-lip{fill:#a84f59;stroke:#71343c;stroke-width:2}.f-aperture{fill:#24191a}
.f-upper-teeth,.f-lower-teeth{fill:#f4efe3;stroke:#9c9487;stroke-width:1.5}.f-tongue{fill:#bd6970;stroke:#7b4148;stroke-width:1.5}
.f-label{font:11px ui-monospace,monospace;fill:#8b817d}
</style><defs><clipPath id="f-mouth"><path d="M71.40,258.14 L380.00,287.38 L688.60,258.14 L688.60,258.14 L380.00,331.11 L71.40,258.14 Z"/></clipPath></defs><path d="M71.40,258.14 L380.00,287.38 L688.60,258.14 L688.60,258.14 L380.00,331.11 L71.40,258.14 Z" class="f-aperture"/><path d="M115.82,262.77 L137.84,264.43 L159.85,266.52 L181.87,268.61 L203.88,270.69 L225.90,272.78 L247.91,274.87 L269.93,276.95 L291.94,279.04 L313.96,281.13 L335.97,283.21 L357.99,285.30 L380.00,287.39 L402.01,285.30 L424.03,283.21 L446.04,281.13 L468.06,279.04 L490.07,276.95 L512.09,274.87 L534.10,272.78 L556.12,270.69 L578.13,268.61 L600.15,266.52 L622.16,264.43 L644.18,262.77 L572.13,402.15 L187.87,402.15 Z" class="f-tongue" clip-path="url(#f-mouth)"/><path d="M93.01,264.14 L380.00,246.13 L666.99,264.14 L620.16,306.17 L139.84,306.17 Z" class="f-upper-teeth" clip-path="url(#f-mouth)"/><path d="M70.19,355.90 L380.00,379.92 L689.81,355.90 L620.16,325.88 L139.84,325.88 Z" class="f-lower-teeth" clip-path="url(#f-mouth)"/><path d="M71.40,258.14 L163.86,487.99 L380.00,506.00 L596.14,487.99 L688.60,258.14" class="f-chin"/><path d="M283.94,102.03 L380.00,54.00 L476.06,102.03 L440.04,150.06 L319.96,150.06 Z" class="f-nose"/><path d="M71.40,258.14 L259.92,216.11 L380.00,240.12 L500.08,216.11 L688.60,258.14 L688.60,258.14 L380.00,287.38 L71.40,258.14 Z" class="f-upper-lip"/><path d="M71.40,258.14 L380.00,331.11 L688.60,258.14 L512.09,385.92 L247.91,385.92 Z" class="f-lower-lip"/></svg>
