<svg xmlns="http://www.w3.org/2000/svg" viewBox="0 0 760 560" role="img" aria-label="Mid-sagittal tract section"><style>




body{background:#0A0E13;color:#CFDAE2;margin:0;
font:400 16px/1.62 ui-sans-serif,system-ui,-apple-system,"Segoe UI",sans-serif}
.wrap{max-width:820px;margin:0 auto;padding:52px 24px 88px;
display:flex;flex-direction:column;gap:34px}
.eyebrow{font:500 11px/1 ui-monospace,SFMono-Regular,Menlo,monospace;
letter-spacing:.18em;text-transform:uppercase;color:#DFA33A;margin:0}
h1{font-size:30px;line-height:1.2;font-weight:600;margin:10px 0 0;
text-wrap:balance;letter-spacing:-.012em}
h2{font-size:18px;font-weight:600;margin:0 0 4px}
p{margin:0;max-width:66ch}
section{display:flex;flex-direction:column;gap:12px}
figure{margin:0;background:#111922;border:1px solid #1E2B36;
border-radius:3px;padding:10px;overflow-x:auto}
figure svg{display:block;width:100%;height:auto;min-width:520px}
figcaption{font:400 13px/1.5 ui-monospace,SFMono-Regular,Menlo,monospace;
color:#7A8B98;padding:10px 4px 2px}
.sweep{stroke:none}
.sweep.trace{fill:rgba(159,198,220,.13)}
.sweep.prior{fill:rgba(70,89,106,.20)}
.wall{fill:none;stroke:#9FC6DC;stroke-width:2}
.openline{fill:none;stroke:#9FC6DC;stroke-width:1;opacity:.55}
.restline{fill:none;stroke:#9FC6DC;stroke-width:1;
stroke-dasharray:3 4;opacity:.75}
.lead{stroke-width:1;opacity:.5}
.lead.place{stroke:#9FC6DC}
.lead.place.fric{stroke:#DFA33A}
.lead.art{stroke:#7A8B98}
.mark.place{fill:#9FC6DC}
.mark.art{fill:#7A8B98}
.mark.place.fric{fill:#DFA33A}
.lbl{font:400 10.5px ui-monospace,SFMono-Regular,Menlo,monospace}
.glyph{font:500 24px ui-sans-serif,system-ui,-apple-system,sans-serif;
fill:#CFDAE2}
.lbl.caption{fill:#7A8B98;font-size:12px}
.lbl.feat{fill:#7A8B98}
.featkey{fill:#93A3AF;opacity:.75}
.lbl.place{fill:#9FC6DC}
.lbl.place.fric{fill:#DFA33A}
.lbl.art{fill:#7A8B98}
.lbl.rest{fill:#CFDAE2}
.lbl.nasal{fill:#7A8B98;font-style:italic}
.restmark{fill:none;stroke:#7A8B98;stroke-width:1}
.nasalfill{fill:rgba(159,198,220,.13);stroke:none}
.nasalside{fill:none;stroke:#9FC6DC;stroke-width:1.5;opacity:.75}
.nasalmid{fill:none;stroke:#9FC6DC;stroke-width:.8;
stroke-dasharray:2 4;opacity:.5}
.velum{stroke:#7FD1B9;stroke-width:1.2;stroke-linejoin:round;fill:#7FD1B9}
.velumtip{fill:#7FD1B9}
.lbl.velum{fill:#5E9384;font-weight:400}
.median{stroke:#7A8B98;stroke-width:1;stroke-dasharray:1 3}
.fold{fill:rgba(159,198,220,.30);stroke:#9FC6DC;stroke-width:1.3;stroke-linejoin:round}
.fold.shut{fill:rgba(223,163,58,.45);stroke:#DFA33A;stroke-width:1.5}
.secondreach{stroke:#DFA33A;stroke-width:1;stroke-dasharray:1 3;opacity:.6}
.second{fill:none;stroke:#DFA33A;stroke-width:1.5;stroke-dasharray:3 2.5}
.lead.second{stroke:#DFA33A;opacity:.4}
.lbl.second{fill:#DFA33A;opacity:.85}
.chip{fill:none;stroke:#93A3AF;stroke-width:1.4;stroke-linejoin:round;
stroke-linecap:round}
.chip.out-of-plane{stroke-dasharray:2 2}
.chip.phase{stroke:#DFA33A}
.chip.prosodic{stroke:#7FD1B9;stroke-width:2.4}
.chip.approximate{stroke:#DFA33A;stroke-width:1.6}
.lbl.chiplbl{fill:#93A3AF}
.lip{fill:rgba(159,198,220,.30);stroke:#9FC6DC;stroke-width:1.4;stroke-linejoin:round}
.lipstem{stroke:#DFA33A;stroke-width:2;stroke-linecap:round;fill:none;opacity:.55}
.lip.shut{fill:rgba(223,163,58,.45);stroke:#DFA33A;stroke-width:1.6}
.lbl.lip{fill:#7A8B98;font-weight:400}
.tonguebody{fill:rgba(223,163,58,.16);stroke:none}
.tongue{fill:none;stroke:#DFA33A;stroke-width:2;stroke-linejoin:round;
stroke-linecap:round;opacity:.9}
.reach{stroke:#DFA33A;stroke-width:1;stroke-dasharray:2 3;opacity:.8}
.constriction{fill:none;stroke:#DFA33A;stroke-width:1.5}
.constriction.shut{fill:#DFA33A}
.lbl.constriction{fill:#DFA33A;font-weight:400;opacity:.85}
.teeth{fill:rgba(207,218,226,.55);stroke:#93A3AF;stroke-width:1.2;stroke-linejoin:round}
.teethmark{fill:#93A3AF}
.lbl.teeth{fill:#93A3AF;font-weight:400}
.medianmark{fill:none;stroke:#7A8B98;stroke-width:1.5}
.dot.measured{fill:#DFA33A}
td.measured{color:#DFA33A}
.line{fill:none;stroke-width:2;stroke-linejoin:round}
.line.prior{stroke:#46596A}
.line.trace{stroke:#9FC6DC}
.dot.prior{fill:#46596A}
.dot.trace{fill:#9FC6DC}
.grid{stroke:#1E2B36;stroke-width:1}
.tick,.axis{font:400 11px ui-monospace,SFMono-Regular,Menlo,monospace;
fill:#7A8B98}
.key{display:flex;flex-wrap:wrap;gap:18px;color:#7A8B98;
font:400 13px ui-monospace,SFMono-Regular,Menlo,monospace}
.key span{display:inline-flex;align-items:center;gap:7px}
.key i{width:15px;height:2px;display:inline-block}
table{border-collapse:collapse;width:100%;
font:400 13.5px ui-monospace,SFMono-Regular,Menlo,monospace}
th,td{text-align:left;padding:7px 12px 7px 0;
border-bottom:1px solid #1E2B36}
th{color:#7A8B98;font-weight:500;font-size:11px;letter-spacing:.1em;
text-transform:uppercase}
td.num{font-variant-numeric:tabular-nums}
td.moved{color:#DFA33A}

@media (prefers-color-scheme:light){




body{background:#DFE4E8;color:#16202A;margin:0;
font:400 16px/1.62 ui-sans-serif,system-ui,-apple-system,"Segoe UI",sans-serif}
.wrap{max-width:820px;margin:0 auto;padding:52px 24px 88px;
display:flex;flex-direction:column;gap:34px}
.eyebrow{font:500 11px/1 ui-monospace,SFMono-Regular,Menlo,monospace;
letter-spacing:.18em;text-transform:uppercase;color:#A96F0E;margin:0}
h1{font-size:30px;line-height:1.2;font-weight:600;margin:10px 0 0;
text-wrap:balance;letter-spacing:-.012em}
h2{font-size:18px;font-weight:600;margin:0 0 4px}
p{margin:0;max-width:66ch}
section{display:flex;flex-direction:column;gap:12px}
figure{margin:0;background:#F1F4F6;border:1px solid #C9D2D9;
border-radius:3px;padding:10px;overflow-x:auto}
figure svg{display:block;width:100%;height:auto;min-width:520px}
figcaption{font:400 13px/1.5 ui-monospace,SFMono-Regular,Menlo,monospace;
color:#5C6E7C;padding:10px 4px 2px}
.sweep{stroke:none}
.sweep.trace{fill:rgba(34,67,92,.10)}
.sweep.prior{fill:rgba(154,169,180,.22)}
.wall{fill:none;stroke:#22435C;stroke-width:2}
.openline{fill:none;stroke:#22435C;stroke-width:1;opacity:.55}
.restline{fill:none;stroke:#22435C;stroke-width:1;
stroke-dasharray:3 4;opacity:.75}
.lead{stroke-width:1;opacity:.5}
.lead.place{stroke:#22435C}
.lead.place.fric{stroke:#A96F0E}
.lead.art{stroke:#5C6E7C}
.mark.place{fill:#22435C}
.mark.art{fill:#5C6E7C}
.mark.place.fric{fill:#A96F0E}
.lbl{font:400 10.5px ui-monospace,SFMono-Regular,Menlo,monospace}
.glyph{font:500 24px ui-sans-serif,system-ui,-apple-system,sans-serif;
fill:#16202A}
.lbl.caption{fill:#5C6E7C;font-size:12px}
.lbl.feat{fill:#5C6E7C}
.featkey{fill:#6B7C88;opacity:.75}
.lbl.place{fill:#22435C}
.lbl.place.fric{fill:#A96F0E}
.lbl.art{fill:#5C6E7C}
.lbl.rest{fill:#16202A}
.lbl.nasal{fill:#5C6E7C;font-style:italic}
.restmark{fill:none;stroke:#5C6E7C;stroke-width:1}
.nasalfill{fill:rgba(34,67,92,.10);stroke:none}
.nasalside{fill:none;stroke:#22435C;stroke-width:1.5;opacity:.75}
.nasalmid{fill:none;stroke:#22435C;stroke-width:.8;
stroke-dasharray:2 4;opacity:.5}
.velum{stroke:#1F7A63;stroke-width:1.2;stroke-linejoin:round;fill:#1F7A63}
.velumtip{fill:#1F7A63}
.lbl.velum{fill:#4C8375;font-weight:400}
.median{stroke:#5C6E7C;stroke-width:1;stroke-dasharray:1 3}
.fold{fill:rgba(34,67,92,.22);stroke:#22435C;stroke-width:1.3;stroke-linejoin:round}
.fold.shut{fill:rgba(169,111,14,.38);stroke:#A96F0E;stroke-width:1.5}
.secondreach{stroke:#A96F0E;stroke-width:1;stroke-dasharray:1 3;opacity:.6}
.second{fill:none;stroke:#A96F0E;stroke-width:1.5;stroke-dasharray:3 2.5}
.lead.second{stroke:#A96F0E;opacity:.4}
.lbl.second{fill:#A96F0E;opacity:.85}
.chip{fill:none;stroke:#6B7C88;stroke-width:1.4;stroke-linejoin:round;
stroke-linecap:round}
.chip.out-of-plane{stroke-dasharray:2 2}
.chip.phase{stroke:#A96F0E}
.chip.prosodic{stroke:#1F7A63;stroke-width:2.4}
.chip.approximate{stroke:#A96F0E;stroke-width:1.6}
.lbl.chiplbl{fill:#6B7C88}
.lip{fill:rgba(34,67,92,.22);stroke:#22435C;stroke-width:1.4;stroke-linejoin:round}
.lipstem{stroke:#A96F0E;stroke-width:2;stroke-linecap:round;fill:none;opacity:.55}
.lip.shut{fill:rgba(169,111,14,.38);stroke:#A96F0E;stroke-width:1.6}
.lbl.lip{fill:#5C6E7C;font-weight:400}
.tonguebody{fill:rgba(169,111,14,.15);stroke:none}
.tongue{fill:none;stroke:#A96F0E;stroke-width:2;stroke-linejoin:round;
stroke-linecap:round;opacity:.9}
.reach{stroke:#A96F0E;stroke-width:1;stroke-dasharray:2 3;opacity:.8}
.constriction{fill:none;stroke:#A96F0E;stroke-width:1.5}
.constriction.shut{fill:#A96F0E}
.lbl.constriction{fill:#A96F0E;font-weight:400;opacity:.85}
.teeth{fill:rgba(22,32,42,.30);stroke:#6B7C88;stroke-width:1.2;stroke-linejoin:round}
.teethmark{fill:#6B7C88}
.lbl.teeth{fill:#6B7C88;font-weight:400}
.medianmark{fill:none;stroke:#5C6E7C;stroke-width:1.5}
.dot.measured{fill:#A96F0E}
td.measured{color:#A96F0E}
.line{fill:none;stroke-width:2;stroke-linejoin:round}
.line.prior{stroke:#9AA9B4}
.line.trace{stroke:#22435C}
.dot.prior{fill:#9AA9B4}
.dot.trace{fill:#22435C}
.grid{stroke:#C9D2D9;stroke-width:1}
.tick,.axis{font:400 11px ui-monospace,SFMono-Regular,Menlo,monospace;
fill:#5C6E7C}
.key{display:flex;flex-wrap:wrap;gap:18px;color:#5C6E7C;
font:400 13px ui-monospace,SFMono-Regular,Menlo,monospace}
.key span{display:inline-flex;align-items:center;gap:7px}
.key i{width:15px;height:2px;display:inline-block}
table{border-collapse:collapse;width:100%;
font:400 13.5px ui-monospace,SFMono-Regular,Menlo,monospace}
th,td{text-align:left;padding:7px 12px 7px 0;
border-bottom:1px solid #C9D2D9}
th{color:#5C6E7C;font-weight:500;font-size:11px;letter-spacing:.1em;
text-transform:uppercase}
td.num{font-variant-numeric:tabular-nums}
td.moved{color:#A96F0E}

}</style><path d="M161.27,140.87 L169.30,161.09 L172.51,161.65 L175.72,162.21 L178.93,162.78 L182.14,163.34 L185.36,163.91 L188.57,164.47 L191.78,165.03 L194.99,165.60 L198.21,166.16 L201.42,166.73 L204.63,167.29 L207.84,167.85 L211.06,168.42 L214.27,168.98 L217.48,169.54 L220.70,170.11 L223.91,170.67 L227.13,171.24 L230.34,171.80 L233.55,172.36 L236.77,172.93 L239.98,173.49 L253.53,169.70 L256.68,167.88 L259.83,166.06 L262.90,164.18 L265.79,162.20 L268.48,160.03 L271.02,157.68 L273.46,155.23 L275.84,152.80 L278.20,150.50 L280.53,148.27 L282.82,146.01 L285.07,143.76 L287.29,141.53 L289.49,139.35 L291.69,137.26 L293.88,135.26 L296.08,133.40 L298.30,131.69 L300.54,130.14 L302.79,128.64 L305.04,127.15 L307.30,125.70 L309.56,124.30 L311.82,122.95 L314.09,121.69 L316.35,120.51 L318.61,119.43 L320.87,118.48 L323.12,117.65 L325.38,116.97 L327.62,116.44 L329.87,115.95 L332.11,115.47 L334.34,115.00 L336.58,114.56 L338.81,114.15 L341.04,113.76 L343.27,113.41 L345.50,113.09 L347.73,112.81 L349.96,112.57 L352.19,112.38 L354.42,112.24 L356.66,112.16 L358.89,112.13 L361.12,112.24 L363.36,112.58 L365.59,113.13 L367.82,113.88 L370.06,114.80 L372.29,115.89 L374.52,117.13 L376.76,118.50 L378.99,119.99 L381.23,121.59 L383.46,123.27 L385.69,125.03 L387.93,126.85 L390.16,128.72 L392.39,130.61 L394.63,132.52 L396.86,134.43 L399.09,136.33 L401.33,138.19 L403.56,140.01 L405.80,141.77 L408.03,143.46 L410.26,145.06 L412.50,146.55 L427.08,147.69 L430.28,148.25 L433.47,148.82 L436.67,149.40 L439.86,150.00 L443.05,150.62 L446.23,151.25 L449.42,151.89 L452.59,152.55 L455.76,153.22 L458.93,153.90 L462.09,154.60 L465.12,156.23 L468.15,157.88 L471.18,159.55 L474.20,161.24 L477.22,162.95 L480.23,164.68 L483.23,166.43 L486.21,168.20 L489.19,169.99 L492.16,171.80 L495.11,173.62 L498.05,175.47 L500.97,177.33 L503.87,179.21 L506.76,181.10 L509.63,183.01 L512.49,184.93 L515.32,186.86 L518.13,188.81 L520.92,190.77 L523.69,192.74 L526.44,194.71 L529.16,196.70 L531.86,198.69 L534.54,200.68 L537.19,202.69 L539.15,205.19 L540.64,208.03 L542.13,210.87 L543.61,213.71 L545.09,216.55 L546.56,219.40 L548.03,222.26 L549.49,225.11 L550.94,227.97 L552.39,230.83 L553.83,233.69 L555.27,236.56 L556.69,239.43 L558.11,242.30 L559.53,245.17 L560.93,248.04 L562.33,250.91 L563.72,253.79 L565.11,256.66 L566.48,259.54 L567.85,262.42 L569.21,265.30 L570.57,268.17 L571.92,271.05 L573.25,273.93 L574.58,276.80 L575.91,279.68 L577.22,282.56 L578.53,285.43 L579.83,288.30 L581.12,291.18 L582.41,294.05 L583.68,296.91 L584.95,299.78 L586.21,302.65 L587.46,305.51 L588.71,308.37 L589.94,311.22 L591.17,314.08 L592.40,316.93 L593.61,319.77 L594.82,322.62 L596.02,325.46 L596.90,328.33 L597.32,331.26 L597.73,334.19 L598.14,337.12 L598.55,340.05 L598.96,342.98 L599.36,345.90 L599.76,348.82 L600.16,351.74 L600.56,354.66 L600.95,357.57 L601.35,360.48 L601.73,363.40 L602.12,366.30 L602.51,369.21 L602.89,372.12 L603.27,375.02 L603.64,377.92 L604.02,380.82 L604.39,383.71 L604.76,386.60 L605.13,389.49 L605.49,392.38 L605.86,395.27 L606.22,398.15 L606.57,401.03 L606.93,403.91 L607.28,406.78 L607.64,409.66 L607.99,412.53 L608.33,415.39 L608.63,418.21 L608.74,420.85 L608.84,423.49 L608.94,426.12 L609.05,428.76 L609.15,431.39 L609.26,434.03 L609.36,436.66 L609.46,439.29 L609.57,441.93 L609.67,444.56 L609.78,447.19 L609.88,449.82 L609.98,452.45 L610.08,455.08 L610.19,457.71 L610.29,460.34 L610.39,462.97 L610.49,465.59 L610.60,468.22 L610.70,470.85 L610.80,473.47 L610.90,476.10 L611.00,478.72 L611.10,481.35 L611.20,483.97 L611.30,486.59 L611.41,489.21 L611.51,491.83 L611.61,494.46 L611.71,497.08 L611.81,499.70 L567.68,506.00 L567.32,503.47 L566.96,500.94 L566.60,498.40 L566.24,495.87 L565.88,493.34 L565.52,490.81 L565.16,488.27 L564.80,485.74 L564.44,483.21 L564.08,480.68 L563.72,478.14 L563.36,475.61 L563.00,473.08 L562.64,470.55 L562.28,468.01 L561.92,465.48 L561.56,462.95 L561.21,460.42 L560.85,457.88 L560.49,455.35 L560.13,452.82 L559.77,450.29 L559.41,447.75 L559.05,445.22 L558.69,442.69 L558.33,440.16 L557.97,437.62 L557.61,435.09 L557.26,432.56 L556.90,430.03 L556.54,427.49 L556.03,424.96 L555.49,422.43 L554.95,419.89 L554.41,417.36 L553.87,414.83 L553.33,412.29 L552.79,409.76 L552.25,407.23 L551.71,404.69 L551.18,402.16 L550.64,399.63 L550.10,397.09 L549.56,394.56 L549.02,392.03 L548.48,389.49 L547.94,386.96 L547.40,384.43 L547.45,381.73 L547.51,379.02 L547.56,376.30 L547.63,373.58 L547.69,370.84 L547.76,368.10 L547.83,365.35 L547.90,362.59 L547.98,359.82 L548.06,357.05 L548.14,354.26 L548.23,351.47 L548.31,348.67 L548.40,345.86 L548.10,343.21 L547.53,340.65 L546.84,338.13 L545.66,335.79 L544.48,333.46 L543.30,331.12 L542.11,328.78 L540.93,326.44 L539.74,324.11 L538.55,321.77 L537.36,319.43 L536.17,317.09 L534.97,314.75 L533.78,312.41 L532.58,310.06 L531.39,307.72 L530.19,305.38 L528.99,303.04 L527.78,300.70 L526.58,298.36 L525.38,296.01 L524.17,293.67 L522.96,291.33 L521.75,288.99 L520.54,286.64 L519.33,284.30 L518.12,281.96 L516.90,279.62 L515.69,277.28 L514.47,274.94 L513.25,272.59 L512.03,270.25 L510.81,267.91 L509.59,265.57 L508.38,263.22 L507.18,260.86 L505.97,258.51 L504.76,256.15 L503.55,253.80 L502.34,251.44 L501.13,249.08 L499.91,246.73 L498.70,244.37 L497.15,242.46 L495.11,241.19 L493.07,239.93 L491.02,238.67 L488.96,237.40 L486.90,236.14 L484.83,234.88 L482.76,233.62 L480.69,232.36 L478.60,231.10 L476.52,229.85 L474.43,228.60 L472.34,227.34 L470.24,226.10 L468.14,224.85 L466.03,223.61 L463.93,222.37 L461.81,221.13 L459.70,219.89 L457.58,218.66 L455.46,217.43 L453.33,216.21 L451.21,214.99 L449.08,213.77 L446.95,212.55 L444.82,211.34 L442.68,210.14 L440.33,209.67 L437.97,209.21 L435.61,208.75 L433.25,208.29 L430.88,207.84 L428.52,207.36 L426.17,206.84 L423.82,206.28 L421.48,205.69 L419.14,205.05 L416.80,204.38 L411.97,203.54 L409.79,202.57 L407.61,201.53 L405.43,200.41 L403.24,199.23 L401.06,197.97 L398.88,196.63 L396.70,195.23 L394.51,193.77 L392.33,192.24 L390.14,190.65 L387.95,189.01 L385.76,187.31 L383.57,185.58 L381.38,183.80 L379.18,182.00 L376.99,180.18 L374.79,178.35 L372.59,176.52 L370.39,174.70 L368.16,173.18 L365.93,171.76 L363.69,170.38 L361.45,169.06 L359.21,167.81 L356.98,166.62 L354.74,165.43 L352.50,164.27 L350.26,163.12 L348.03,162.00 L345.79,160.90 L343.55,159.84 L341.32,158.80 L339.08,157.79 L336.84,156.82 L334.60,155.88 L332.36,154.98 L330.11,154.11 L327.87,153.28 L325.62,152.51 L323.37,151.87 L321.12,151.36 L318.86,150.99 L316.60,150.74 L314.34,150.62 L312.08,150.61 L309.82,150.72 L307.55,150.93 L305.29,151.23 L303.04,151.62 L300.78,152.08 L298.54,152.63 L296.31,153.36 L294.10,154.28 L291.90,155.35 L289.69,156.58 L287.48,157.92 L285.25,159.38 L283.00,160.91 L280.72,162.50 L278.40,164.12 L276.06,165.86 L273.71,167.74 L271.31,169.67 L268.82,171.58 L267.81,218.08 L264.91,218.68 L261.99,219.27 L259.06,219.87 L256.13,220.49 L251.98,221.33 L248.99,221.68 L246.00,222.01 L243.01,222.33 L240.01,222.64 L237.01,222.94 L234.01,223.23 L231.00,223.51 L228.00,223.78 L224.99,224.04 L221.97,224.29 L218.96,224.53 L215.94,224.75 L212.92,224.97 L209.90,225.17 L206.87,225.37 L203.84,225.55 L200.81,225.72 L197.78,225.89 L194.74,226.04 L191.70,226.18 L188.66,226.31 L185.62,226.43 L186.11,240.39 Z" class="sweep trace"/><path d="M161.27,140.87 L169.30,161.09 L172.51,161.65 L175.72,162.21 L178.93,162.78 L182.14,163.34 L185.36,163.91 L188.57,164.47 L191.78,165.03 L194.99,165.60 L198.21,166.16 L201.42,166.73 L204.63,167.29 L207.84,167.85 L211.06,168.42 L214.27,168.98 L217.48,169.54 L220.70,170.11 L223.91,170.67 L227.13,171.24 L230.34,171.80 L233.55,172.36 L236.77,172.93 L239.98,173.49 L253.53,169.70 L256.68,167.88 L259.83,166.06 L262.90,164.18 L265.79,162.20 L268.48,160.03 L271.02,157.68 L273.46,155.23 L275.84,152.80 L278.20,150.50 L280.53,148.27 L282.82,146.01 L285.07,143.76 L287.29,141.53 L289.49,139.35 L291.69,137.26 L293.88,135.26 L296.08,133.40 L298.30,131.69 L300.54,130.14 L302.79,128.64 L305.04,127.15 L307.30,125.70 L309.56,124.30 L311.82,122.95 L314.09,121.69 L316.35,120.51 L318.61,119.43 L320.87,118.48 L323.12,117.65 L325.38,116.97 L327.62,116.44 L329.87,115.95 L332.11,115.47 L334.34,115.00 L336.58,114.56 L338.81,114.15 L341.04,113.76 L343.27,113.41 L345.50,113.09 L347.73,112.81 L349.96,112.57 L352.19,112.38 L354.42,112.24 L356.66,112.16 L358.89,112.13 L361.12,112.24 L363.36,112.58 L365.59,113.13 L367.82,113.88 L370.06,114.80 L372.29,115.89 L374.52,117.13 L376.76,118.50 L378.99,119.99 L381.23,121.59 L383.46,123.27 L385.69,125.03 L387.93,126.85 L390.16,128.72 L392.39,130.61 L394.63,132.52 L396.86,134.43 L399.09,136.33 L401.33,138.19 L403.56,140.01 L405.80,141.77 L408.03,143.46 L410.26,145.06 L412.50,146.55 L427.08,147.69 L430.28,148.25 L433.47,148.82 L436.67,149.40 L439.86,150.00 L443.05,150.62 L446.23,151.25 L449.42,151.89 L452.59,152.55 L455.76,153.22 L458.93,153.90 L462.09,154.60 L465.12,156.23 L468.15,157.88 L471.18,159.55 L474.20,161.24 L477.22,162.95 L480.23,164.68 L483.23,166.43 L486.21,168.20 L489.19,169.99 L492.16,171.80 L495.11,173.62 L498.05,175.47 L500.97,177.33 L503.87,179.21 L506.76,181.10 L509.63,183.01 L512.49,184.93 L515.32,186.86 L518.13,188.81 L520.92,190.77 L523.69,192.74 L526.44,194.71 L529.16,196.70 L531.86,198.69 L534.54,200.68 L537.19,202.69 L539.15,205.19 L540.64,208.03 L542.13,210.87 L543.61,213.71 L545.09,216.55 L546.56,219.40 L548.03,222.26 L549.49,225.11 L550.94,227.97 L552.39,230.83 L553.83,233.69 L555.27,236.56 L556.69,239.43 L558.11,242.30 L559.53,245.17 L560.93,248.04 L562.33,250.91 L563.72,253.79 L565.11,256.66 L566.48,259.54 L567.85,262.42 L569.21,265.30 L570.57,268.17 L571.92,271.05 L573.25,273.93 L574.58,276.80 L575.91,279.68 L577.22,282.56 L578.53,285.43 L579.83,288.30 L581.12,291.18 L582.41,294.05 L583.68,296.91 L584.95,299.78 L586.21,302.65 L587.46,305.51 L588.71,308.37 L589.94,311.22 L591.17,314.08 L592.40,316.93 L593.61,319.77 L594.82,322.62 L596.02,325.46 L596.90,328.33 L597.32,331.26 L597.73,334.19 L598.14,337.12 L598.55,340.05 L598.96,342.98 L599.36,345.90 L599.76,348.82 L600.16,351.74 L600.56,354.66 L600.95,357.57 L601.35,360.48 L601.73,363.40 L602.12,366.30 L602.51,369.21 L602.89,372.12 L603.27,375.02 L603.64,377.92 L604.02,380.82 L604.39,383.71 L604.76,386.60 L605.13,389.49 L605.49,392.38 L605.86,395.27 L606.22,398.15 L606.57,401.03 L606.93,403.91 L607.28,406.78 L607.64,409.66 L607.99,412.53 L608.33,415.39 L608.63,418.21 L608.74,420.85 L608.84,423.49 L608.94,426.12 L609.05,428.76 L609.15,431.39 L609.26,434.03 L609.36,436.66 L609.46,439.29 L609.57,441.93 L609.67,444.56 L609.78,447.19 L609.88,449.82 L609.98,452.45 L610.08,455.08 L610.19,457.71 L610.29,460.34 L610.39,462.97 L610.49,465.59 L610.60,468.22 L610.70,470.85 L610.80,473.47 L610.90,476.10 L611.00,478.72 L611.10,481.35 L611.20,483.97 L611.30,486.59 L611.41,489.21 L611.51,491.83 L611.61,494.46 L611.71,497.08 L611.81,499.70" class="wall"/><path d="M181.91,211.59 L185.01,211.70 L188.11,211.80 L191.21,211.89 L194.30,211.97 L197.39,212.04 L200.48,212.10 L203.57,212.15 L206.65,212.18 L209.73,212.21 L212.81,212.23 L215.88,212.23 L218.95,212.23 L222.02,212.21 L225.09,212.18 L228.16,212.15 L231.22,212.10 L234.28,212.04 L237.33,211.97 L240.39,211.89 L243.44,211.80 L246.49,211.70 L249.54,211.58 L255.60,210.19 L258.58,209.38 L261.56,208.58 L264.51,207.78 L267.41,206.95 L269.86,206.24 L272.17,205.52 L274.46,204.79 L276.72,204.06 L278.98,203.38 L281.24,202.72 L283.49,202.06 L285.73,201.41 L287.96,200.77 L290.19,200.15 L292.41,199.56 L294.62,199.00 L296.84,198.48 L299.06,198.00 L301.29,197.55 L303.53,197.07 L305.77,196.61 L308.01,196.15 L310.25,195.71 L312.49,195.28 L314.73,194.88 L316.96,194.49 L319.20,194.14 L321.43,193.81 L323.67,193.52 L325.90,193.26 L328.13,193.04 L330.36,192.84 L332.60,192.63 L334.83,192.44 L337.06,192.24 L339.29,192.06 L341.52,191.88 L343.74,191.70 L345.97,191.54 L348.20,191.39 L350.43,191.24 L352.66,191.11 L354.89,190.98 L357.12,190.87 L359.35,190.78 L361.58,190.71 L363.81,190.69 L366.04,190.72 L368.27,190.79 L370.49,190.99 L372.67,191.57 L374.85,192.19 L377.04,192.83 L379.22,193.50 L381.40,194.19 L383.59,194.90 L385.77,195.62 L387.95,196.35 L390.14,197.09 L392.32,197.84 L394.50,198.58 L396.68,199.33 L398.87,200.07 L401.05,200.80 L403.23,201.52 L405.41,202.22 L407.60,202.91 L409.78,203.58 L411.96,204.22 L416.73,204.79 L419.10,205.24 L421.48,205.69 L423.85,206.14 L426.23,206.60 L428.60,207.06 L430.97,207.52 L433.33,207.98 L435.70,208.45 L438.06,208.92 L440.42,209.39 L442.78,209.86 L444.91,211.08 L447.05,212.30 L449.18,213.52 L451.31,214.74 L453.44,215.97 L455.56,217.21 L457.69,218.44 L459.81,219.68 L461.92,220.93 L464.03,222.17 L466.14,223.42 L468.25,224.67 L470.35,225.93 L472.44,227.18 L474.54,228.44 L476.63,229.70 L478.71,230.96 L480.79,232.23 L482.86,233.49 L484.93,234.76 L486.99,236.03 L489.05,237.30 L491.11,238.56 L493.16,239.83 L495.20,241.10 L497.24,242.37 L498.78,244.30 L499.99,246.66 L501.20,249.02 L502.41,251.38 L503.62,253.74 L504.82,256.10 L506.03,258.46 L507.23,260.82 L508.43,263.18 L509.63,265.54 L510.85,267.88 L512.07,270.22 L513.29,272.56 L514.51,274.91 L515.73,277.25 L516.94,279.59 L518.16,281.93 L519.37,284.28 L520.58,286.62 L521.79,288.96 L523.00,291.30 L524.21,293.65 L525.41,295.99 L526.62,298.33 L527.82,300.68 L529.02,303.02 L530.22,305.36 L531.42,307.70 L532.62,310.05 L533.81,312.39 L535.01,314.73 L536.20,317.07 L537.39,319.41 L538.58,321.75 L539.77,324.09 L540.96,326.43 L542.14,328.77 L543.33,331.11 L544.51,333.44 L545.69,335.78 L546.87,338.12 L548.05,340.45 L549.23,342.79 L550.14,345.23 L550.66,347.84 L551.18,350.44 L551.69,353.05 L552.21,355.65 L552.72,358.26 L553.24,360.86 L553.75,363.47 L554.26,366.07 L554.78,368.67 L555.29,371.28 L555.80,373.88 L556.32,376.48 L556.83,379.08 L557.34,381.68 L557.85,384.28 L558.36,386.88 L558.87,389.48 L559.38,392.08 L559.89,394.68 L560.40,397.28 L560.90,399.88 L561.41,402.47 L561.92,405.07 L562.43,407.67 L562.93,410.26 L563.44,412.86 L563.95,415.45 L564.45,418.05 L564.96,420.64 L565.46,423.24 L565.93,425.82 L566.24,428.37 L566.55,430.92 L566.87,433.47 L567.18,436.03 L567.49,438.58 L567.80,441.13 L568.12,443.68 L568.43,446.23 L568.74,448.78 L569.05,451.33 L569.37,453.88 L569.68,456.43 L569.99,458.98 L570.31,461.53 L570.62,464.08 L570.93,466.63 L571.24,469.18 L571.56,471.73 L571.87,474.28 L572.18,476.83 L572.49,479.38 L572.81,481.93 L573.12,484.48 L573.43,487.03 L573.74,489.57 L574.06,492.12 L574.37,494.67 L574.68,497.22 L574.99,499.77 L575.31,502.32 L575.62,504.87" class="restline"/><path d="M186.11,240.39 L185.62,226.43 L188.66,226.31 L191.70,226.18 L194.74,226.04 L197.78,225.89 L200.81,225.72 L203.84,225.55 L206.87,225.37 L209.90,225.17 L212.92,224.97 L215.94,224.75 L218.96,224.53 L221.97,224.29 L224.99,224.04 L228.00,223.78 L231.00,223.51 L234.01,223.23 L237.01,222.94 L240.01,222.64 L243.01,222.33 L246.00,222.01 L248.99,221.68 L251.98,221.33 L256.13,220.49 L259.06,219.87 L261.99,219.27 L264.91,218.68 L267.81,218.08 L270.20,217.69 L272.46,217.35 L274.70,217.01 L276.94,216.68 L279.17,216.37 L281.42,216.07 L283.66,215.77 L285.89,215.48 L288.13,215.20 L290.36,214.92 L292.58,214.67 L294.80,214.42 L297.02,214.19 L299.25,213.98 L301.48,213.76 L303.71,213.51 L305.95,213.27 L308.18,213.03 L310.42,212.79 L312.65,212.56 L314.88,212.34 L317.11,212.12 L319.34,211.92 L321.57,211.72 L323.80,211.53 L326.02,211.35 L328.25,211.18 L330.48,211.02 L332.71,210.86 L334.94,210.70 L337.17,210.54 L339.40,210.38 L341.63,210.23 L343.85,210.08 L346.08,209.93 L348.31,209.78 L350.54,209.63 L352.77,209.49 L355.00,209.35 L357.23,209.21 L359.45,209.07 L361.68,208.94 L363.91,208.82 L366.14,208.70 L368.37,208.59 L370.59,208.60 L372.76,209.05 L374.93,209.51 L377.10,209.97 L379.27,210.44 L381.44,210.90 L383.62,211.37 L385.79,211.84 L387.96,212.31 L390.13,212.78 L392.30,213.25 L394.47,213.72 L396.64,214.19 L398.82,214.65 L400.99,215.11 L403.16,215.57 L405.33,216.02 L407.50,216.47 L409.67,216.92 L411.84,217.36 L414.37,217.79 L416.56,218.20 L418.76,218.61 L420.95,219.02 L423.14,219.44 L425.32,219.85 L427.51,220.26 L429.70,220.68 L431.88,221.09 L434.06,221.50 L436.24,221.91 L438.42,222.33 L440.36,223.44 L442.29,224.56 L444.23,225.67 L446.16,226.79 L448.09,227.90 L450.02,229.01 L451.95,230.13 L453.88,231.24 L455.80,232.35 L457.73,233.47 L459.65,234.58 L461.57,235.69 L463.50,236.80 L465.42,237.91 L467.33,239.02 L469.25,240.13 L471.17,241.24 L473.08,242.35 L475.00,243.46 L476.91,244.56 L478.82,245.67 L480.73,246.77 L482.64,247.88 L484.55,248.98 L486.46,250.08 L488.37,251.19 L489.82,252.98 L490.97,255.23 L492.13,257.47 L493.28,259.72 L494.43,261.97 L495.59,264.22 L496.74,266.46 L497.89,268.71 L499.04,270.95 L500.19,273.20 L501.37,275.42 L502.54,277.65 L503.72,279.88 L504.89,282.10 L506.06,284.33 L507.24,286.55 L508.41,288.78 L509.59,291.00 L510.76,293.23 L511.93,295.45 L513.11,297.68 L514.28,299.90 L515.46,302.12 L516.63,304.35 L517.80,306.57 L518.98,308.80 L520.15,311.02 L521.32,313.25 L522.50,315.47 L523.67,317.70 L524.84,319.92 L526.02,322.14 L527.19,324.37 L528.36,326.59 L529.54,328.82 L530.71,331.04 L531.88,333.26 L533.06,335.49 L534.23,337.71 L535.40,339.93 L536.58,342.16 L537.75,344.38 L538.92,346.61 L539.84,348.95 L540.38,351.49 L540.92,354.02 L541.46,356.56 L542.00,359.09 L542.54,361.62 L543.08,364.16 L543.62,366.69 L544.16,369.22 L544.70,371.76 L545.24,374.29 L545.78,376.83 L546.32,379.36 L546.86,381.89 L547.40,384.43 L547.94,386.96 L548.48,389.49 L549.02,392.03 L549.56,394.56 L550.10,397.09 L550.64,399.63 L551.18,402.16 L551.71,404.69 L552.25,407.23 L552.79,409.76 L553.33,412.29 L553.87,414.83 L554.41,417.36 L554.95,419.89 L555.49,422.43 L556.03,424.96 L556.54,427.49 L556.90,430.03 L557.26,432.56 L557.61,435.09 L557.97,437.62 L558.33,440.16 L558.69,442.69 L559.05,445.22 L559.41,447.75 L559.77,450.29 L560.13,452.82 L560.49,455.35 L560.85,457.88 L561.21,460.42 L561.56,462.95 L561.92,465.48 L562.28,468.01 L562.64,470.55 L563.00,473.08 L563.36,475.61 L563.72,478.14 L564.08,480.68 L564.44,483.21 L564.80,485.74 L565.16,488.27 L565.52,490.81 L565.88,493.34 L566.24,495.87 L566.60,498.40 L566.96,500.94 L567.32,503.47 L567.68,506.00" class="openline"/><line x1="265.8" y1="162.2" x2="265.8" y2="176.2" class="lead place fric"/><circle cx="265.8" cy="162.2" r="2.4" class="mark place fric"/><text x="265.8" y="186.2" class="lbl place fric" text-anchor="middle">alveolar</text><line x1="266.2" y1="173.4" x2="266.2" y2="191.4" class="lead art"/><circle cx="266.2" cy="173.4" r="2.4" class="mark art"/><text x="266.2" y="201.4" class="lbl art" text-anchor="middle"><tspan x="266.2" dy="0">tongue-tip</tspan></text><line x1="567.7" y1="506.0" x2="611.8" y2="499.7" class="median"/><line x1="589.7" y1="502.8" x2="589.7" y2="516.8" class="lead art"/><text x="589.7" y="526.8" class="lbl art" text-anchor="middle"><tspan x="589.7" dy="0">vocal folds</tspan><tspan x="589.7" dy="12">voiceless</tspan></text><path d="M181.70,163.48 L188.47,200.15 L200.89,166.86 Z" class="teeth"/><path d="M191.99,242.24 L195.83,225.87 L216.65,236.59 Z" class="teeth"/><path d="M148.19,165.80 L151.16,157.05 L154.41,148.21 L158.43,141.58 L163.48,137.77 L170.13,134.19 L178.03,130.92 L186.72,128.12 L195.67,125.98 L204.34,124.67 L210.72,124.19 L217.10,123.90 L223.50,123.73 L229.83,123.62 L235.99,123.52 L241.87,123.38 L247.65,122.96 L253.64,121.15 L259.42,117.99 L265.02,113.70 L270.48,108.49 L275.84,102.58 L281.13,96.21 L286.38,89.58 L291.63,82.92 L296.91,76.45 L302.26,70.40 L307.71,64.97 L313.28,60.40 L319.02,56.91 L324.96,54.71 L331.27,54.00 L339.08,54.18 L347.18,55.06 L355.49,56.54 L363.91,58.54 L372.37,60.95 L380.79,63.67 L389.08,66.59 L397.17,69.59 L404.91,72.54 L411.35,75.32 L417.66,78.49 L423.90,81.94 L430.09,85.52 L436.28,89.12 L442.51,92.60 L448.88,95.87 L455.97,99.00 L463.24,101.92 L470.47,104.85 L477.43,108.01 L483.87,111.62 L489.99,116.30 L496.03,123.67 L500.56,132.45 L503.31,141.58 L504.33,150.25 L503.89,158.49 L502.73,166.89 L501.37,174.84 L552.39,230.83 L550.94,227.97 L549.49,225.11 L548.03,222.26 L546.56,219.40 L545.09,216.55 L543.61,213.71 L542.13,210.87 L540.64,208.03 L539.15,205.19 L537.19,202.69 L534.54,200.68 L531.86,198.69 L529.16,196.70 L526.44,194.71 L523.69,192.74 L520.92,190.77 L518.13,188.81 L515.32,186.86 L512.49,184.93 L509.63,183.01 L506.76,181.10 L503.87,179.21 L500.97,177.33 L498.05,175.47 L494.72,176.15 L491.02,170.30 L487.49,164.92 L483.74,160.59 L478.74,157.53 L472.73,155.38 L466.87,153.89 L462.07,152.55 L457.35,150.38 L451.79,148.29 L445.89,146.47 L439.83,144.75 L433.80,142.94 L428.01,140.88 L422.03,138.23 L416.09,135.28 L410.21,138.31 L404.34,134.54 L398.44,130.75 L392.48,126.92 L386.40,123.02 L381.27,119.72 L376.12,116.42 L370.92,113.08 L365.72,109.74 L360.56,106.42 L355.47,105.83 L350.49,106.53 L345.67,107.21 L341.03,107.86 L335.41,108.65 L329.83,109.43 L324.40,111.08 L319.09,113.84 L313.87,116.56 L308.71,119.25 L303.57,121.93 L298.43,125.09 L293.26,129.85 L288.03,134.67 L282.70,139.58 L277.25,144.63 L271.65,149.96 L265.87,155.31 L259.88,158.99 L253.13,163.14 L245.81,161.32 L238.25,160.77 L230.57,160.15 L222.86,159.51 L215.23,158.87 L207.90,158.27 L202.20,157.67 L195.92,157.41 L189.52,157.50 L183.47,157.99 L178.30,158.90 L174.63,160.23 L172.60,163.72 L170.94,169.26 L168.94,174.69 Z" class="nasalfill"/><path d="M148.19,165.80 L151.16,157.05 L154.41,148.21 L158.43,141.58 L163.48,137.77 L170.13,134.19 L178.03,130.92 L186.72,128.12 L195.67,125.98 L204.34,124.67 L210.72,124.19 L217.10,123.90 L223.50,123.73 L229.83,123.62 L235.99,123.52 L241.87,123.38 L247.65,122.96 L253.64,121.15 L259.42,117.99 L265.02,113.70 L270.48,108.49 L275.84,102.58 L281.13,96.21 L286.38,89.58 L291.63,82.92 L296.91,76.45 L302.26,70.40 L307.71,64.97 L313.28,60.40 L319.02,56.91 L324.96,54.71 L331.27,54.00 L339.08,54.18 L347.18,55.06 L355.49,56.54 L363.91,58.54 L372.37,60.95 L380.79,63.67 L389.08,66.59 L397.17,69.59 L404.91,72.54 L411.35,75.32 L417.66,78.49 L423.90,81.94 L430.09,85.52 L436.28,89.12 L442.51,92.60 L448.88,95.87 L455.97,99.00 L463.24,101.92 L470.47,104.85 L477.43,108.01 L483.87,111.62 L489.99,116.30 L496.03,123.67 L500.56,132.45 L503.31,141.58 L504.33,150.25 L503.89,158.49 L502.73,166.89 L501.37,174.84 L552.39,230.83 L550.94,227.97 L549.49,225.11 L548.03,222.26 L546.56,219.40 L545.09,216.55 L543.61,213.71 L542.13,210.87 L540.64,208.03 L539.15,205.19 L537.19,202.69 L534.54,200.68 L531.86,198.69 L529.16,196.70 L526.44,194.71 L523.69,192.74 L520.92,190.77 L518.13,188.81 L515.32,186.86 L512.49,184.93 L509.63,183.01 L506.76,181.10 L503.87,179.21 L500.97,177.33 L498.05,175.47" class="nasalside"/><path d="M168.94,174.69 L170.94,169.26 L172.60,163.72 L174.63,160.23 L178.30,158.90 L183.47,157.99 L189.52,157.50 L195.92,157.41 L202.20,157.67 L207.90,158.27 L215.23,158.87 L222.86,159.51 L230.57,160.15 L238.25,160.77 L245.81,161.32 L253.13,163.14 L259.88,158.99 L265.87,155.31 L271.65,149.96 L277.25,144.63 L282.70,139.58 L288.03,134.67 L293.26,129.85 L298.43,125.09 L303.57,121.93 L308.71,119.25 L313.87,116.56 L319.09,113.84 L324.40,111.08 L329.83,109.43 L335.41,108.65 L341.03,107.86 L345.67,107.21 L350.49,106.53 L355.47,105.83 L360.56,106.42 L365.72,109.74 L370.92,113.08 L376.12,116.42 L381.27,119.72 L386.40,123.02 L392.48,126.92 L398.44,130.75 L404.34,134.54 L410.21,138.31 L416.09,135.28 L422.03,138.23 L428.01,140.88 L433.80,142.94 L439.83,144.75 L445.89,146.47 L451.79,148.29 L457.35,150.38 L462.07,152.55 L466.87,153.89 L472.73,155.38 L478.74,157.53 L483.74,160.59 L487.49,164.92 L491.02,170.30 L494.72,176.15" class="nasalside"/><path d="M158.57,170.25 L161.05,163.16 L163.51,155.96 L166.53,150.90 L170.89,148.33 L176.80,146.09 L183.78,144.21 L191.32,142.76 L198.94,141.83 L206.12,141.47 L212.97,141.53 L219.98,141.70 L227.03,141.94 L234.04,142.20 L240.90,142.42 L247.50,142.57 L253.76,142.51 L259.75,141.24 L265.53,138.66 L271.13,134.96 L276.59,130.37 L281.93,125.08 L287.19,119.32 L292.41,113.29 L297.60,107.20 L302.81,101.26 L308.07,95.69 L313.40,90.69 L318.84,86.48 L324.43,83.26 L330.19,81.25 L336.15,80.64 L342.38,81.03 L348.84,81.99 L355.48,83.42 L362.23,85.23 L369.05,87.33 L375.86,89.63 L382.60,92.04 L389.22,94.45 L395.65,96.78 L401.91,99.34 L408.05,102.29 L414.12,105.50 L420.15,108.85 L426.18,112.20 L432.27,115.42 L438.44,118.38 L444.89,120.97 L451.53,123.33 L458.18,125.66 L464.61,128.15 L470.61,131.00 L476.03,134.43 L481.45,138.78 L486.64,143.91 L491.03,149.55 L494.03,155.42 L495.69,161.71 L496.87,168.59 L498.04,175.50" class="nasalmid"/><line x1="158.6" y1="170.2" x2="158.6" y2="186.2" class="lead nasal"/><text x="158.6" y="196.2" class="lbl nasal" text-anchor="middle"><tspan x="158.6" dy="0">nares</tspan></text><text x="270.5" y="98.5" class="lbl nasal" text-anchor="middle">nasal cavity</text><path d="M439.9,144.9 Q439.9,170.4 498.0,170.4 L498.0,180.6 Q439.9,180.6 439.9,155.1 Z" class="velum"/><line x1="498.0" y1="175.5" x2="498.0" y2="189.5" class="lead art"/><text x="498.0" y="199.5" class="lbl velum" text-anchor="middle"><tspan x="498.0" dy="0">velum</tspan><tspan x="498.0" dy="12">port sealed</tspan></text><path d="M266.75,173.02 L268.82,171.58 L271.31,169.67 L273.71,167.74 L276.06,165.86 L278.40,164.12 L280.72,162.50 L283.00,160.91 L285.25,159.38 L287.48,157.92 L289.69,156.58 L291.90,155.35 L294.10,154.28 L296.31,153.36 L298.54,152.63 L300.78,152.08 L303.04,151.62 L305.29,151.23 L307.55,150.93 L309.82,150.72 L312.08,150.61 L314.34,150.62 L316.60,150.74 L318.86,150.99 L321.12,151.36 L323.37,151.87 L325.62,152.51 L327.87,153.28 L330.11,154.11 L332.36,154.98 L334.60,155.88 L336.84,156.82 L339.08,157.79 L341.32,158.80 L343.55,159.84 L345.79,160.90 L348.03,162.00 L350.26,163.12 L352.50,164.27 L354.74,165.43 L356.98,166.62 L359.21,167.81 L361.45,169.06 L363.69,170.38 L365.93,171.76 L368.16,173.18 L370.39,174.70 L372.59,176.52 L374.79,178.35 L376.99,180.18 L379.18,182.00 L381.38,183.80 L383.57,185.58 L385.76,187.31 L387.95,189.01 L390.14,190.65 L392.33,192.24 L394.51,193.77 L396.70,195.23 L398.88,196.63 L401.06,197.97 L403.24,199.23 L405.43,200.41 L407.61,201.53 L409.79,202.57 L411.97,203.54 L416.80,204.38 L419.14,205.05 L421.48,205.69 L423.82,206.28 L426.17,206.84 L428.52,207.36 L430.88,207.84 L433.25,208.29 L435.61,208.75 L437.97,209.21 L440.33,209.67 L442.68,210.14 L444.82,211.34 L446.95,212.55 L449.08,213.77 L451.21,214.99 L453.33,216.21 L455.46,217.43 L457.58,218.66 L459.70,219.89 L461.81,221.13 L463.93,222.37 L466.03,223.61 L468.14,224.85 L470.24,226.10 L472.34,227.34 L474.43,228.60 L476.52,229.85 L478.60,231.10 L480.69,232.36 L482.76,233.62 L484.83,234.88 L486.90,236.14 L488.96,237.40 L491.02,238.67 L493.07,239.93 L495.11,241.19 L497.15,242.46 L498.70,244.37 L499.91,246.73 L501.13,249.08 L502.34,251.44 L503.55,253.80 L504.76,256.15 L505.97,258.51 L507.18,260.86 L508.38,263.22 L509.59,265.57 L510.81,267.91 L512.03,270.25 L513.25,272.59 L514.47,274.94 L515.69,277.28 L516.90,279.62 L518.12,281.96 L519.33,284.30 L520.54,286.64 L521.75,288.99 L522.96,291.33 L524.17,293.67 L525.38,296.01 L526.58,298.36 L527.78,300.70 L528.99,303.04 L530.19,305.38 L531.39,307.72 L532.58,310.06 L533.78,312.41 L534.97,314.75 L536.17,317.09 L537.36,319.43 L538.55,321.77 L539.74,324.11 L540.93,326.44 L542.11,328.78 L543.30,331.12 L544.48,333.46 L545.66,335.79 L546.84,338.13 L547.53,340.65 L548.10,343.21 L548.40,345.86 L548.31,348.67 L548.23,351.47 L548.14,354.26 L548.06,357.05 L547.98,359.82 L547.90,362.59 L547.83,365.35 L547.76,368.10 L547.69,370.84 L547.63,373.58 L547.56,376.30 L547.51,379.02 L547.45,381.73 L547.40,384.43 L547.40,384.43 L546.86,381.89 L546.32,379.36 L545.78,376.83 L545.24,374.29 L544.70,371.76 L544.16,369.22 L543.62,366.69 L543.08,364.16 L542.54,361.62 L542.00,359.09 L541.46,356.56 L540.92,354.02 L540.38,351.49 L539.84,348.95 L538.92,346.61 L537.75,344.38 L536.58,342.16 L535.40,339.93 L534.23,337.71 L533.06,335.49 L531.88,333.26 L530.71,331.04 L529.54,328.82 L528.36,326.59 L527.19,324.37 L526.02,322.14 L524.84,319.92 L523.67,317.70 L522.50,315.47 L521.32,313.25 L520.15,311.02 L518.98,308.80 L517.80,306.57 L516.63,304.35 L515.46,302.12 L514.28,299.90 L513.11,297.68 L511.93,295.45 L510.76,293.23 L509.59,291.00 L508.41,288.78 L507.24,286.55 L506.06,284.33 L504.89,282.10 L503.72,279.88 L502.54,277.65 L501.37,275.42 L500.19,273.20 L499.04,270.95 L497.89,268.71 L496.74,266.46 L495.59,264.22 L494.43,261.97 L493.28,259.72 L492.13,257.47 L490.97,255.23 L489.82,252.98 L488.37,251.19 L486.46,250.08 L484.55,248.98 L482.64,247.88 L480.73,246.77 L478.82,245.67 L476.91,244.56 L475.00,243.46 L473.08,242.35 L471.17,241.24 L469.25,240.13 L467.33,239.02 L465.42,237.91 L463.50,236.80 L461.57,235.69 L459.65,234.58 L457.73,233.47 L455.80,232.35 L453.88,231.24 L451.95,230.13 L450.02,229.01 L448.09,227.90 L446.16,226.79 L444.23,225.67 L442.29,224.56 L440.36,223.44 L438.42,222.33 L436.24,221.91 L434.06,221.50 L431.88,221.09 L429.70,220.68 L427.51,220.26 L425.32,219.85 L423.14,219.44 L420.95,219.02 L418.76,218.61 L416.56,218.20 L414.37,217.79 L411.84,217.36 L409.67,216.92 L407.50,216.47 L405.33,216.02 L403.16,215.57 L400.99,215.11 L398.82,214.65 L396.64,214.19 L394.47,213.72 L392.30,213.25 L390.13,212.78 L387.96,212.31 L385.79,211.84 L383.62,211.37 L381.44,210.90 L379.27,210.44 L377.10,209.97 L374.93,209.51 L372.76,209.05 L370.59,208.60 L368.37,208.59 L366.14,208.70 L363.91,208.82 L361.68,208.94 L359.45,209.07 L357.23,209.21 L355.00,209.35 L352.77,209.49 L350.54,209.63 L348.31,209.78 L346.08,209.93 L343.85,210.08 L341.63,210.23 L339.40,210.38 L337.17,210.54 L334.94,210.70 L332.71,210.86 L330.48,211.02 L328.25,211.18 L326.02,211.35 L323.80,211.53 L321.57,211.72 L319.34,211.92 L317.11,212.12 L314.88,212.34 L312.65,212.56 L310.42,212.79 L308.18,213.03 L305.95,213.27 L303.71,213.51 L301.48,213.76 L299.25,213.98 L297.02,214.19 L294.80,214.42 L292.58,214.67 L290.36,214.92 L288.13,215.20 L285.89,215.48 L283.66,215.77 L281.42,216.07 L279.17,216.37 L276.94,216.68 L274.70,217.01 L272.46,217.35 L270.20,217.69 Q266.75,196.46 266.75,173.02 Z" class="tonguebody"/><path d="M266.75,173.02 L268.82,171.58 L271.31,169.67 L273.71,167.74 L276.06,165.86 L278.40,164.12 L280.72,162.50 L283.00,160.91 L285.25,159.38 L287.48,157.92 L289.69,156.58 L291.90,155.35 L294.10,154.28 L296.31,153.36 L298.54,152.63 L300.78,152.08 L303.04,151.62 L305.29,151.23 L307.55,150.93 L309.82,150.72 L312.08,150.61 L314.34,150.62 L316.60,150.74 L318.86,150.99 L321.12,151.36 L323.37,151.87 L325.62,152.51 L327.87,153.28 L330.11,154.11 L332.36,154.98 L334.60,155.88 L336.84,156.82 L339.08,157.79 L341.32,158.80 L343.55,159.84 L345.79,160.90 L348.03,162.00 L350.26,163.12 L352.50,164.27 L354.74,165.43 L356.98,166.62 L359.21,167.81 L361.45,169.06 L363.69,170.38 L365.93,171.76 L368.16,173.18 L370.39,174.70 L372.59,176.52 L374.79,178.35 L376.99,180.18 L379.18,182.00 L381.38,183.80 L383.57,185.58 L385.76,187.31 L387.95,189.01 L390.14,190.65 L392.33,192.24 L394.51,193.77 L396.70,195.23 L398.88,196.63 L401.06,197.97 L403.24,199.23 L405.43,200.41 L407.61,201.53 L409.79,202.57 L411.97,203.54 L416.80,204.38 L419.14,205.05 L421.48,205.69 L423.82,206.28 L426.17,206.84 L428.52,207.36 L430.88,207.84 L433.25,208.29 L435.61,208.75 L437.97,209.21 L440.33,209.67 L442.68,210.14 L444.82,211.34 L446.95,212.55 L449.08,213.77 L451.21,214.99 L453.33,216.21 L455.46,217.43 L457.58,218.66 L459.70,219.89 L461.81,221.13 L463.93,222.37 L466.03,223.61 L468.14,224.85 L470.24,226.10 L472.34,227.34 L474.43,228.60 L476.52,229.85 L478.60,231.10 L480.69,232.36 L482.76,233.62 L484.83,234.88 L486.90,236.14 L488.96,237.40 L491.02,238.67 L493.07,239.93 L495.11,241.19 L497.15,242.46 L498.70,244.37 L499.91,246.73 L501.13,249.08 L502.34,251.44 L503.55,253.80 L504.76,256.15 L505.97,258.51 L507.18,260.86 L508.38,263.22 L509.59,265.57 L510.81,267.91 L512.03,270.25 L513.25,272.59 L514.47,274.94 L515.69,277.28 L516.90,279.62 L518.12,281.96 L519.33,284.30 L520.54,286.64 L521.75,288.99 L522.96,291.33 L524.17,293.67 L525.38,296.01 L526.58,298.36 L527.78,300.70 L528.99,303.04 L530.19,305.38 L531.39,307.72 L532.58,310.06 L533.78,312.41 L534.97,314.75 L536.17,317.09 L537.36,319.43 L538.55,321.77 L539.74,324.11 L540.93,326.44 L542.11,328.78 L543.30,331.12 L544.48,333.46 L545.66,335.79 L546.84,338.13 L547.53,340.65 L548.10,343.21 L548.40,345.86 L548.31,348.67 L548.23,351.47 L548.14,354.26 L548.06,357.05 L547.98,359.82 L547.90,362.59 L547.83,365.35 L547.76,368.10 L547.69,370.84 L547.63,373.58 L547.56,376.30 L547.51,379.02 L547.45,381.73 L547.40,384.43" class="tongue"/><circle cx="266.2" cy="173.4" r="5" class="constriction"/><text x="266.2" y="152.4" class="lbl constriction" text-anchor="middle"><tspan x="266.2" dy="0">tongue tip</tspan><tspan x="266.2" dy="12">0.20 open</tspan></text><path d="M569.44,518.36 L574.74,504.99 L565.91,493.64 Z" class="fold"/><path d="M613.57,512.05 L604.75,500.70 L610.04,487.34 Z" class="fold"/><circle cx="351.1" cy="544.0" r="4.5" class="chip out-of-plane"/><text x="387.0" y="548.0" class="lbl chiplbl" text-anchor="middle">sibilant</text><path d="M143.8,145.2 L145.7,153.1 Q156.4,158.8 163.2,148.8 L161.3,140.9" class="lip upper-lip"/><path d="M168.6,244.8 L166.6,236.9 Q173.4,226.8 184.1,232.5 L186.1,240.4" class="lip lower-lip"/><text x="173.4" y="252.8" class="lbl lip" text-anchor="middle">lips</text><text x="734" y="44" class="glyph" text-anchor="end">s</text><text x="734" y="64" class="lbl caption" text-anchor="end">voiceless sibilant alveolar fricative</text><text x="734" y="84" class="lbl feat" text-anchor="end"><tspan class="featkey">channel</tspan> grooved</text><text x="734" y="99" class="lbl feat" text-anchor="end"><tspan class="featkey">manner</tspan> fricative</text><text x="734" y="114" class="lbl feat" text-anchor="end"><tspan class="featkey">place</tspan> alveolar</text></svg>