<svg xmlns="http://www.w3.org/2000/svg" viewBox="0 0 760 560" role="img" aria-label="Mid-sagittal tract section"><style>




body{background:#0A0E13;color:#CFDAE2;margin:0;
font:400 16px/1.62 ui-sans-serif,system-ui,-apple-system,"Segoe UI",sans-serif}
.wrap{max-width:820px;margin:0 auto;padding:52px 24px 88px;
display:flex;flex-direction:column;gap:34px}
.eyebrow{font:500 11px/1 ui-monospace,SFMono-Regular,Menlo,monospace;
letter-spacing:.18em;text-transform:uppercase;color:#DFA33A;margin:0}
h1{font-size:30px;line-height:1.2;font-weight:600;margin:10px 0 0;
text-wrap:balance;letter-spacing:-.012em}
h2{font-size:18px;font-weight:600;margin:0 0 4px}
p{margin:0;max-width:66ch}
section{display:flex;flex-direction:column;gap:12px}
figure{margin:0;background:#111922;border:1px solid #1E2B36;
border-radius:3px;padding:10px;overflow-x:auto}
figure svg{display:block;width:100%;height:auto;min-width:520px}
figcaption{font:400 13px/1.5 ui-monospace,SFMono-Regular,Menlo,monospace;
color:#7A8B98;padding:10px 4px 2px}
.sweep{stroke:none}
.sweep.trace{fill:rgba(159,198,220,.13)}
.sweep.prior{fill:rgba(70,89,106,.20)}
.wall{fill:none;stroke:#9FC6DC;stroke-width:2}
.openline{fill:none;stroke:#9FC6DC;stroke-width:1;opacity:.55}
.restline{fill:none;stroke:#9FC6DC;stroke-width:1;
stroke-dasharray:3 4;opacity:.75}
.jawhinge{fill:none;stroke:#DFA33A;stroke-width:1.8}
.jawhinge-pin{fill:#DFA33A}
.lead{stroke-width:1;opacity:.5}
.lead.place{stroke:#9FC6DC}
.lead.place.fric{stroke:#DFA33A}
.lead.art{stroke:#7A8B98}
.mark.place{fill:#9FC6DC}
.mark.art{fill:#7A8B98}
.mark.place.fric{fill:#DFA33A}
.lbl{font:400 10.5px ui-monospace,SFMono-Regular,Menlo,monospace}
.glyph{font:500 24px ui-sans-serif,system-ui,-apple-system,sans-serif;
fill:#CFDAE2}
.lbl.caption{fill:#7A8B98;font-size:12px}
.lbl.feat{fill:#7A8B98}
.featkey{fill:#93A3AF;opacity:.75}
.lbl.place{fill:#9FC6DC}
.lbl.place.fric{fill:#DFA33A}
.lbl.art{fill:#7A8B98}
.lbl.rest{fill:#CFDAE2}
.lbl.nasal{fill:#7A8B98;font-style:italic}
.restmark{fill:none;stroke:#7A8B98;stroke-width:1}
.nasalfill{fill:rgba(159,198,220,.13);stroke:none}
.nasalside{fill:none;stroke:#9FC6DC;stroke-width:1.5;opacity:.75}
.nasalmid{fill:none;stroke:#9FC6DC;stroke-width:.8;
stroke-dasharray:2 4;opacity:.5}
.velum{stroke:#7FD1B9;stroke-width:1.2;stroke-linejoin:round;fill:#7FD1B9}
.velumtip{fill:#7FD1B9}
.lbl.velum{fill:#5E9384;font-weight:400}
.median{stroke:#7A8B98;stroke-width:1;stroke-dasharray:1 3}
.fold{fill:rgba(159,198,220,.30);stroke:#9FC6DC;stroke-width:1.3;stroke-linejoin:round}
.fold.shut{fill:rgba(223,163,58,.45);stroke:#DFA33A;stroke-width:1.5}
.secondreach{stroke:#DFA33A;stroke-width:1;stroke-dasharray:1 3;opacity:.6}
.second{fill:none;stroke:#DFA33A;stroke-width:1.5;stroke-dasharray:3 2.5}
.lead.second{stroke:#DFA33A;opacity:.4}
.lbl.second{fill:#DFA33A;opacity:.85}
.chip{fill:none;stroke:#93A3AF;stroke-width:1.4;stroke-linejoin:round;
stroke-linecap:round}
.chip.out-of-plane{stroke-dasharray:2 2}
.chip.phase{stroke:#DFA33A}
.chip.prosodic{stroke:#7FD1B9;stroke-width:2.4}
.chip.approximate{stroke:#DFA33A;stroke-width:1.6}
.lbl.chiplbl{fill:#93A3AF}
.lip{fill:rgba(159,198,220,.30);stroke:#9FC6DC;stroke-width:1.4;stroke-linejoin:round}
.lipstem{stroke:#DFA33A;stroke-width:2;stroke-linecap:round;fill:none;opacity:.55}
.lip.shut{fill:rgba(223,163,58,.45);stroke:#DFA33A;stroke-width:1.6}
.lbl.lip{fill:#7A8B98;font-weight:400}
.tonguebody{fill:rgba(223,163,58,.16);stroke:none}
.tongue{fill:none;stroke:#DFA33A;stroke-width:2;stroke-linejoin:round;
stroke-linecap:round;opacity:.9}
.reach{stroke:#DFA33A;stroke-width:1;stroke-dasharray:2 3;opacity:.8}
.constriction{fill:none;stroke:#DFA33A;stroke-width:1.5}
.constriction.shut{fill:#DFA33A}
.lbl.constriction{fill:#DFA33A;font-weight:400;opacity:.85}
.teeth{fill:rgba(207,218,226,.55);stroke:#93A3AF;stroke-width:1.2;stroke-linejoin:round}
.teethmark{fill:#93A3AF}
.lbl.teeth{fill:#93A3AF;font-weight:400}
.medianmark{fill:none;stroke:#7A8B98;stroke-width:1.5}
.dot.measured{fill:#DFA33A}
td.measured{color:#DFA33A}
.line{fill:none;stroke-width:2;stroke-linejoin:round}
.line.prior{stroke:#46596A}
.line.trace{stroke:#9FC6DC}
.dot.prior{fill:#46596A}
.dot.trace{fill:#9FC6DC}
.grid{stroke:#1E2B36;stroke-width:1}
.tick,.axis{font:400 11px ui-monospace,SFMono-Regular,Menlo,monospace;
fill:#7A8B98}
.key{display:flex;flex-wrap:wrap;gap:18px;color:#7A8B98;
font:400 13px ui-monospace,SFMono-Regular,Menlo,monospace}
.key span{display:inline-flex;align-items:center;gap:7px}
.key i{width:15px;height:2px;display:inline-block}
table{border-collapse:collapse;width:100%;
font:400 13.5px ui-monospace,SFMono-Regular,Menlo,monospace}
th,td{text-align:left;padding:7px 12px 7px 0;
border-bottom:1px solid #1E2B36}
th{color:#7A8B98;font-weight:500;font-size:11px;letter-spacing:.1em;
text-transform:uppercase}
td.num{font-variant-numeric:tabular-nums}
td.moved{color:#DFA33A}

@media (prefers-color-scheme:light){




body{background:#DFE4E8;color:#16202A;margin:0;
font:400 16px/1.62 ui-sans-serif,system-ui,-apple-system,"Segoe UI",sans-serif}
.wrap{max-width:820px;margin:0 auto;padding:52px 24px 88px;
display:flex;flex-direction:column;gap:34px}
.eyebrow{font:500 11px/1 ui-monospace,SFMono-Regular,Menlo,monospace;
letter-spacing:.18em;text-transform:uppercase;color:#A96F0E;margin:0}
h1{font-size:30px;line-height:1.2;font-weight:600;margin:10px 0 0;
text-wrap:balance;letter-spacing:-.012em}
h2{font-size:18px;font-weight:600;margin:0 0 4px}
p{margin:0;max-width:66ch}
section{display:flex;flex-direction:column;gap:12px}
figure{margin:0;background:#F1F4F6;border:1px solid #C9D2D9;
border-radius:3px;padding:10px;overflow-x:auto}
figure svg{display:block;width:100%;height:auto;min-width:520px}
figcaption{font:400 13px/1.5 ui-monospace,SFMono-Regular,Menlo,monospace;
color:#5C6E7C;padding:10px 4px 2px}
.sweep{stroke:none}
.sweep.trace{fill:rgba(34,67,92,.10)}
.sweep.prior{fill:rgba(154,169,180,.22)}
.wall{fill:none;stroke:#22435C;stroke-width:2}
.openline{fill:none;stroke:#22435C;stroke-width:1;opacity:.55}
.restline{fill:none;stroke:#22435C;stroke-width:1;
stroke-dasharray:3 4;opacity:.75}
.jawhinge{fill:none;stroke:#A96F0E;stroke-width:1.8}
.jawhinge-pin{fill:#A96F0E}
.lead{stroke-width:1;opacity:.5}
.lead.place{stroke:#22435C}
.lead.place.fric{stroke:#A96F0E}
.lead.art{stroke:#5C6E7C}
.mark.place{fill:#22435C}
.mark.art{fill:#5C6E7C}
.mark.place.fric{fill:#A96F0E}
.lbl{font:400 10.5px ui-monospace,SFMono-Regular,Menlo,monospace}
.glyph{font:500 24px ui-sans-serif,system-ui,-apple-system,sans-serif;
fill:#16202A}
.lbl.caption{fill:#5C6E7C;font-size:12px}
.lbl.feat{fill:#5C6E7C}
.featkey{fill:#6B7C88;opacity:.75}
.lbl.place{fill:#22435C}
.lbl.place.fric{fill:#A96F0E}
.lbl.art{fill:#5C6E7C}
.lbl.rest{fill:#16202A}
.lbl.nasal{fill:#5C6E7C;font-style:italic}
.restmark{fill:none;stroke:#5C6E7C;stroke-width:1}
.nasalfill{fill:rgba(34,67,92,.10);stroke:none}
.nasalside{fill:none;stroke:#22435C;stroke-width:1.5;opacity:.75}
.nasalmid{fill:none;stroke:#22435C;stroke-width:.8;
stroke-dasharray:2 4;opacity:.5}
.velum{stroke:#1F7A63;stroke-width:1.2;stroke-linejoin:round;fill:#1F7A63}
.velumtip{fill:#1F7A63}
.lbl.velum{fill:#4C8375;font-weight:400}
.median{stroke:#5C6E7C;stroke-width:1;stroke-dasharray:1 3}
.fold{fill:rgba(34,67,92,.22);stroke:#22435C;stroke-width:1.3;stroke-linejoin:round}
.fold.shut{fill:rgba(169,111,14,.38);stroke:#A96F0E;stroke-width:1.5}
.secondreach{stroke:#A96F0E;stroke-width:1;stroke-dasharray:1 3;opacity:.6}
.second{fill:none;stroke:#A96F0E;stroke-width:1.5;stroke-dasharray:3 2.5}
.lead.second{stroke:#A96F0E;opacity:.4}
.lbl.second{fill:#A96F0E;opacity:.85}
.chip{fill:none;stroke:#6B7C88;stroke-width:1.4;stroke-linejoin:round;
stroke-linecap:round}
.chip.out-of-plane{stroke-dasharray:2 2}
.chip.phase{stroke:#A96F0E}
.chip.prosodic{stroke:#1F7A63;stroke-width:2.4}
.chip.approximate{stroke:#A96F0E;stroke-width:1.6}
.lbl.chiplbl{fill:#6B7C88}
.lip{fill:rgba(34,67,92,.22);stroke:#22435C;stroke-width:1.4;stroke-linejoin:round}
.lipstem{stroke:#A96F0E;stroke-width:2;stroke-linecap:round;fill:none;opacity:.55}
.lip.shut{fill:rgba(169,111,14,.38);stroke:#A96F0E;stroke-width:1.6}
.lbl.lip{fill:#5C6E7C;font-weight:400}
.tonguebody{fill:rgba(169,111,14,.15);stroke:none}
.tongue{fill:none;stroke:#A96F0E;stroke-width:2;stroke-linejoin:round;
stroke-linecap:round;opacity:.9}
.reach{stroke:#A96F0E;stroke-width:1;stroke-dasharray:2 3;opacity:.8}
.constriction{fill:none;stroke:#A96F0E;stroke-width:1.5}
.constriction.shut{fill:#A96F0E}
.lbl.constriction{fill:#A96F0E;font-weight:400;opacity:.85}
.teeth{fill:rgba(22,32,42,.30);stroke:#6B7C88;stroke-width:1.2;stroke-linejoin:round}
.teethmark{fill:#6B7C88}
.lbl.teeth{fill:#6B7C88;font-weight:400}
.medianmark{fill:none;stroke:#5C6E7C;stroke-width:1.5}
.dot.measured{fill:#A96F0E}
td.measured{color:#A96F0E}
.line{fill:none;stroke-width:2;stroke-linejoin:round}
.line.prior{stroke:#9AA9B4}
.line.trace{stroke:#22435C}
.dot.prior{fill:#9AA9B4}
.dot.trace{fill:#22435C}
.grid{stroke:#C9D2D9;stroke-width:1}
.tick,.axis{font:400 11px ui-monospace,SFMono-Regular,Menlo,monospace;
fill:#5C6E7C}
.key{display:flex;flex-wrap:wrap;gap:18px;color:#5C6E7C;
font:400 13px ui-monospace,SFMono-Regular,Menlo,monospace}
.key span{display:inline-flex;align-items:center;gap:7px}
.key i{width:15px;height:2px;display:inline-block}
table{border-collapse:collapse;width:100%;
font:400 13.5px ui-monospace,SFMono-Regular,Menlo,monospace}
th,td{text-align:left;padding:7px 12px 7px 0;
border-bottom:1px solid #C9D2D9}
th{color:#5C6E7C;font-weight:500;font-size:11px;letter-spacing:.1em;
text-transform:uppercase}
td.num{font-variant-numeric:tabular-nums}
td.moved{color:#A96F0E}

}</style><path d="M161.25,140.87 L169.30,161.09 L172.51,161.65 L175.72,162.21 L178.93,162.78 L182.14,163.34 L185.36,163.91 L188.57,164.47 L191.78,165.03 L194.99,165.60 L198.21,166.16 L201.42,166.73 L204.63,167.29 L207.84,167.85 L211.06,168.42 L214.27,168.98 L217.48,169.54 L220.70,170.11 L223.91,170.67 L227.13,171.24 L230.34,171.80 L233.55,172.36 L236.77,172.93 L239.98,173.49 L253.53,169.70 L256.68,167.88 L259.83,166.06 L262.90,164.18 L265.79,162.20 L268.48,160.03 L271.02,157.68 L273.46,155.23 L275.84,152.80 L278.20,150.50 L280.53,148.27 L282.82,146.01 L285.07,143.76 L287.29,141.53 L289.49,139.35 L291.69,137.26 L293.88,135.26 L296.08,133.40 L298.30,131.69 L300.54,130.14 L302.79,128.64 L305.04,127.15 L307.30,125.70 L309.56,124.30 L311.82,122.95 L314.09,121.69 L316.35,120.51 L318.61,119.43 L320.87,118.48 L323.12,117.65 L325.38,116.97 L327.62,116.44 L329.87,115.95 L332.11,115.47 L334.34,115.00 L336.58,114.56 L338.81,114.15 L341.04,113.76 L343.27,113.41 L345.50,113.09 L347.73,112.81 L349.96,112.57 L352.19,112.38 L354.42,112.24 L356.66,112.16 L358.89,112.13 L361.12,112.24 L363.36,112.58 L365.59,113.13 L367.82,113.88 L370.06,114.80 L372.29,115.89 L374.52,117.13 L376.76,118.50 L378.99,119.99 L381.23,121.59 L383.46,123.27 L385.69,125.03 L387.93,126.85 L390.16,128.72 L392.39,130.61 L394.63,132.52 L396.86,134.43 L399.09,136.33 L401.33,138.19 L403.56,140.01 L405.80,141.77 L408.03,143.46 L410.26,145.06 L412.50,146.55 L427.08,147.69 L430.28,148.25 L433.47,148.82 L436.67,149.40 L439.86,150.00 L443.05,150.62 L446.23,151.25 L449.42,151.89 L452.59,152.55 L455.76,153.22 L458.93,153.90 L462.09,154.60 L465.12,156.23 L468.15,157.88 L471.18,159.55 L474.20,161.24 L477.22,162.95 L480.23,164.68 L483.23,166.43 L486.21,168.20 L489.19,169.99 L492.16,171.80 L495.11,173.62 L498.05,175.47 L500.97,177.33 L503.87,179.21 L506.76,181.10 L509.63,183.01 L512.49,184.93 L515.32,186.86 L518.13,188.81 L520.92,190.77 L523.69,192.74 L526.44,194.71 L529.16,196.70 L531.86,198.69 L534.54,200.68 L537.19,202.69 L539.15,205.19 L540.64,208.03 L542.13,210.87 L543.61,213.71 L545.09,216.55 L546.56,219.40 L548.03,222.26 L549.49,225.11 L550.94,227.97 L552.39,230.83 L553.83,233.69 L555.27,236.56 L556.69,239.43 L558.11,242.30 L559.53,245.17 L560.93,248.04 L562.33,250.91 L563.72,253.79 L565.11,256.66 L566.48,259.54 L567.85,262.42 L569.21,265.30 L570.57,268.17 L571.92,271.05 L573.25,273.93 L574.58,276.80 L575.91,279.68 L577.22,282.56 L578.53,285.43 L579.83,288.30 L581.12,291.18 L582.41,294.05 L583.68,296.91 L584.95,299.78 L586.21,302.65 L587.46,305.51 L588.71,308.37 L589.94,311.22 L591.17,314.08 L592.40,316.93 L593.61,319.77 L594.82,322.62 L596.02,325.46 L596.90,328.33 L597.32,331.26 L597.73,334.19 L598.14,337.12 L598.55,340.05 L598.96,342.98 L599.36,345.90 L599.76,348.82 L600.16,351.74 L600.56,354.66 L600.95,357.57 L601.35,360.48 L601.73,363.40 L602.12,366.30 L602.51,369.21 L602.89,372.12 L603.27,375.02 L603.64,377.92 L604.02,380.82 L604.39,383.71 L604.76,386.60 L605.13,389.49 L605.49,392.38 L605.86,395.27 L606.22,398.15 L606.57,401.03 L606.93,403.91 L607.28,406.78 L607.64,409.66 L607.99,412.53 L608.33,415.39 L608.63,418.21 L608.74,420.85 L608.84,423.49 L608.94,426.12 L609.05,428.76 L609.15,431.39 L609.26,434.03 L609.36,436.66 L609.46,439.29 L609.57,441.93 L609.67,444.56 L609.78,447.19 L609.88,449.82 L609.98,452.45 L610.08,455.08 L610.19,457.71 L610.29,460.34 L610.39,462.97 L610.49,465.59 L610.60,468.22 L610.70,470.85 L610.80,473.47 L610.90,476.10 L611.00,478.72 L611.10,481.35 L611.20,483.97 L611.30,486.59 L611.41,489.21 L611.51,491.83 L611.61,494.46 L611.71,497.08 L611.81,499.70 L567.68,506.00 L567.31,503.47 L566.95,500.94 L566.59,498.40 L566.22,495.87 L565.86,493.34 L565.50,490.81 L565.13,488.28 L564.77,485.74 L564.41,483.21 L564.05,480.68 L563.68,478.15 L563.32,475.62 L562.96,473.08 L562.59,470.55 L562.23,468.02 L561.87,465.49 L561.51,462.96 L561.14,460.42 L560.78,457.89 L560.42,455.36 L560.06,452.83 L559.69,450.30 L559.33,447.76 L558.97,445.23 L558.60,442.70 L558.24,440.17 L557.88,437.64 L557.52,435.10 L557.15,432.57 L556.79,430.04 L556.43,427.51 L555.92,424.98 L555.38,422.44 L554.84,419.91 L554.29,417.38 L553.75,414.85 L553.21,412.31 L552.66,409.78 L552.12,407.25 L551.58,404.72 L551.03,402.19 L550.49,399.65 L549.95,397.12 L549.40,394.59 L548.86,392.06 L548.32,389.53 L547.77,386.99 L547.23,384.46 L547.28,381.76 L547.34,379.05 L547.39,376.34 L547.46,373.61 L547.52,370.88 L547.59,368.14 L547.66,365.39 L547.73,362.64 L547.80,359.87 L547.88,357.09 L547.96,354.31 L548.05,351.52 L548.13,348.72 L548.22,345.91 L547.92,343.26 L547.35,340.70 L546.66,338.18 L545.48,335.85 L544.30,333.51 L543.11,331.18 L541.92,328.84 L540.74,326.51 L539.55,324.17 L538.36,321.84 L537.16,319.50 L535.97,317.16 L534.77,314.82 L533.58,312.49 L532.38,310.15 L531.18,307.81 L529.98,305.47 L528.78,303.13 L527.57,300.79 L526.37,298.45 L525.16,296.11 L523.96,293.77 L522.75,291.43 L521.54,289.10 L520.32,286.76 L519.11,284.42 L517.90,282.08 L516.68,279.74 L515.47,277.40 L514.25,275.06 L513.03,272.73 L511.81,270.39 L510.59,268.05 L509.36,265.71 L508.13,263.38 L506.91,261.04 L505.68,258.70 L504.45,256.37 L503.21,254.03 L501.98,251.69 L500.75,249.36 L499.51,247.03 L498.28,244.69 L496.72,242.80 L494.66,241.56 L492.60,240.32 L490.53,239.08 L488.46,237.84 L486.39,236.60 L484.31,235.37 L482.23,234.14 L480.14,232.91 L478.05,231.68 L475.96,230.45 L473.86,229.23 L471.76,228.01 L469.66,226.79 L467.56,225.57 L465.45,224.36 L463.34,223.15 L461.23,221.93 L459.14,220.69 L457.06,219.41 L454.99,218.09 L452.94,216.73 L450.90,215.34 L448.87,213.91 L446.84,212.44 L444.81,210.93 L442.79,209.38 L440.55,208.54 L438.30,207.66 L436.06,206.75 L433.80,205.80 L431.55,204.81 L429.28,203.79 L427.00,202.73 L424.72,201.65 L422.42,200.53 L420.10,199.38 L417.77,198.21 L411.92,196.83 L409.74,195.29 L407.55,193.67 L405.37,191.96 L403.18,190.18 L401.00,188.32 L398.81,186.39 L396.62,184.40 L394.43,182.34 L392.24,180.23 L390.04,178.07 L387.85,175.88 L385.65,173.66 L383.45,171.42 L381.25,169.18 L379.05,166.95 L376.84,164.73 L374.63,162.56 L372.43,160.44 L370.22,158.38 L367.99,156.62 L365.75,155.00 L363.51,153.49 L361.27,152.11 L359.03,150.86 L356.79,149.73 L354.56,148.66 L352.32,147.64 L350.09,146.69 L347.85,145.80 L345.62,144.98 L343.38,144.22 L341.15,143.53 L338.91,142.91 L336.67,142.35 L334.44,141.86 L332.20,141.44 L329.96,141.08 L327.71,140.79 L325.47,140.58 L323.22,140.53 L320.97,140.66 L318.71,140.95 L316.45,141.40 L314.19,141.98 L311.94,142.70 L309.68,143.54 L307.42,144.49 L305.16,145.54 L302.91,146.66 L300.66,147.86 L298.43,149.15 L296.21,150.61 L294.00,152.24 L291.80,154.02 L289.60,155.93 L287.39,157.93 L285.16,160.00 L282.92,162.12 L280.64,164.27 L278.33,166.42 L276.01,168.68 L273.67,171.05 L271.29,173.45 L268.83,175.80 L266.25,178.04 L263.36,180.25 L260.35,182.40 L257.29,184.53 L254.24,186.67 L244.18,190.15 L241.24,190.71 L238.33,191.34 L235.43,192.05 L232.56,192.84 L229.71,193.71 L226.87,194.66 L232.40,228.83 L229.47,229.41 L226.54,229.98 L223.61,230.55 L220.68,231.12 L217.75,231.68 L214.82,232.25 L211.89,232.81 L208.95,233.37 L206.02,233.93 L203.09,234.49 L200.15,235.04 L197.22,235.59 L194.29,236.14 L191.35,236.69 L188.42,237.24 L189.38,252.96 Z" class="sweep trace"/><path d="M161.25,140.87 L169.30,161.09 L172.51,161.65 L175.72,162.21 L178.93,162.78 L182.14,163.34 L185.36,163.91 L188.57,164.47 L191.78,165.03 L194.99,165.60 L198.21,166.16 L201.42,166.73 L204.63,167.29 L207.84,167.85 L211.06,168.42 L214.27,168.98 L217.48,169.54 L220.70,170.11 L223.91,170.67 L227.13,171.24 L230.34,171.80 L233.55,172.36 L236.77,172.93 L239.98,173.49 L253.53,169.70 L256.68,167.88 L259.83,166.06 L262.90,164.18 L265.79,162.20 L268.48,160.03 L271.02,157.68 L273.46,155.23 L275.84,152.80 L278.20,150.50 L280.53,148.27 L282.82,146.01 L285.07,143.76 L287.29,141.53 L289.49,139.35 L291.69,137.26 L293.88,135.26 L296.08,133.40 L298.30,131.69 L300.54,130.14 L302.79,128.64 L305.04,127.15 L307.30,125.70 L309.56,124.30 L311.82,122.95 L314.09,121.69 L316.35,120.51 L318.61,119.43 L320.87,118.48 L323.12,117.65 L325.38,116.97 L327.62,116.44 L329.87,115.95 L332.11,115.47 L334.34,115.00 L336.58,114.56 L338.81,114.15 L341.04,113.76 L343.27,113.41 L345.50,113.09 L347.73,112.81 L349.96,112.57 L352.19,112.38 L354.42,112.24 L356.66,112.16 L358.89,112.13 L361.12,112.24 L363.36,112.58 L365.59,113.13 L367.82,113.88 L370.06,114.80 L372.29,115.89 L374.52,117.13 L376.76,118.50 L378.99,119.99 L381.23,121.59 L383.46,123.27 L385.69,125.03 L387.93,126.85 L390.16,128.72 L392.39,130.61 L394.63,132.52 L396.86,134.43 L399.09,136.33 L401.33,138.19 L403.56,140.01 L405.80,141.77 L408.03,143.46 L410.26,145.06 L412.50,146.55 L427.08,147.69 L430.28,148.25 L433.47,148.82 L436.67,149.40 L439.86,150.00 L443.05,150.62 L446.23,151.25 L449.42,151.89 L452.59,152.55 L455.76,153.22 L458.93,153.90 L462.09,154.60 L465.12,156.23 L468.15,157.88 L471.18,159.55 L474.20,161.24 L477.22,162.95 L480.23,164.68 L483.23,166.43 L486.21,168.20 L489.19,169.99 L492.16,171.80 L495.11,173.62 L498.05,175.47 L500.97,177.33 L503.87,179.21 L506.76,181.10 L509.63,183.01 L512.49,184.93 L515.32,186.86 L518.13,188.81 L520.92,190.77 L523.69,192.74 L526.44,194.71 L529.16,196.70 L531.86,198.69 L534.54,200.68 L537.19,202.69 L539.15,205.19 L540.64,208.03 L542.13,210.87 L543.61,213.71 L545.09,216.55 L546.56,219.40 L548.03,222.26 L549.49,225.11 L550.94,227.97 L552.39,230.83 L553.83,233.69 L555.27,236.56 L556.69,239.43 L558.11,242.30 L559.53,245.17 L560.93,248.04 L562.33,250.91 L563.72,253.79 L565.11,256.66 L566.48,259.54 L567.85,262.42 L569.21,265.30 L570.57,268.17 L571.92,271.05 L573.25,273.93 L574.58,276.80 L575.91,279.68 L577.22,282.56 L578.53,285.43 L579.83,288.30 L581.12,291.18 L582.41,294.05 L583.68,296.91 L584.95,299.78 L586.21,302.65 L587.46,305.51 L588.71,308.37 L589.94,311.22 L591.17,314.08 L592.40,316.93 L593.61,319.77 L594.82,322.62 L596.02,325.46 L596.90,328.33 L597.32,331.26 L597.73,334.19 L598.14,337.12 L598.55,340.05 L598.96,342.98 L599.36,345.90 L599.76,348.82 L600.16,351.74 L600.56,354.66 L600.95,357.57 L601.35,360.48 L601.73,363.40 L602.12,366.30 L602.51,369.21 L602.89,372.12 L603.27,375.02 L603.64,377.92 L604.02,380.82 L604.39,383.71 L604.76,386.60 L605.13,389.49 L605.49,392.38 L605.86,395.27 L606.22,398.15 L606.57,401.03 L606.93,403.91 L607.28,406.78 L607.64,409.66 L607.99,412.53 L608.33,415.39 L608.63,418.21 L608.74,420.85 L608.84,423.49 L608.94,426.12 L609.05,428.76 L609.15,431.39 L609.26,434.03 L609.36,436.66 L609.46,439.29 L609.57,441.93 L609.67,444.56 L609.78,447.19 L609.88,449.82 L609.98,452.45 L610.08,455.08 L610.19,457.71 L610.29,460.34 L610.39,462.97 L610.49,465.59 L610.60,468.22 L610.70,470.85 L610.80,473.47 L610.90,476.10 L611.00,478.72 L611.10,481.35 L611.20,483.97 L611.30,486.59 L611.41,489.21 L611.51,491.83 L611.61,494.46 L611.71,497.08 L611.81,499.70" class="wall"/><circle cx="539.5" cy="156.1" r="6.0" class="jawhinge"/><circle cx="539.5" cy="156.1" r="1.8" class="jawhinge-pin"/><path d="M184.98,222.33 L187.96,222.02 L190.94,221.71 L193.92,221.39 L196.91,221.07 L199.89,220.75 L202.87,220.43 L205.85,220.10 L208.83,219.78 L211.81,219.45 L214.79,219.12 L217.78,218.78 L220.76,218.45 L223.73,218.11 L226.71,217.77 L229.69,217.43 L232.67,217.09 L235.65,216.74 L238.63,216.39 L241.61,216.04 L244.58,215.69 L247.56,215.33 L250.54,214.98 L255.38,213.85 L258.35,213.05 L261.31,212.26 L264.27,211.45 L267.19,210.61 L269.62,210.01 L271.91,209.44 L274.18,208.85 L276.44,208.27 L278.70,207.70 L280.96,207.15 L283.22,206.60 L285.46,206.04 L287.71,205.49 L289.94,204.94 L292.17,204.41 L294.40,203.90 L296.62,203.41 L298.85,202.95 L301.09,202.51 L303.33,202.07 L305.58,201.64 L307.82,201.21 L310.07,200.78 L312.31,200.37 L314.55,199.97 L316.78,199.58 L319.02,199.21 L321.26,198.87 L323.50,198.54 L325.73,198.25 L327.97,197.97 L330.20,197.71 L332.44,197.45 L334.67,197.20 L336.90,196.94 L339.14,196.69 L341.37,196.45 L343.60,196.21 L345.83,195.98 L348.07,195.75 L350.30,195.53 L352.53,195.32 L354.76,195.12 L357.00,194.92 L359.23,194.74 L361.46,194.58 L363.69,194.47 L365.93,194.39 L368.16,194.34 L370.38,194.42 L372.56,194.93 L374.74,195.47 L376.92,196.03 L379.10,196.61 L381.28,197.21 L383.46,197.83 L385.64,198.45 L387.82,199.09 L390.01,199.74 L392.19,200.39 L394.37,201.05 L396.55,201.70 L398.73,202.35 L400.91,203.00 L403.09,203.64 L405.27,204.26 L407.45,204.88 L409.64,205.47 L411.82,206.05 L416.23,206.57 L418.58,206.98 L420.94,207.39 L423.30,207.81 L425.66,208.22 L428.02,208.64 L430.37,209.06 L432.73,209.49 L435.08,209.91 L437.44,210.34 L439.79,210.77 L442.14,211.20 L444.27,212.38 L446.39,213.56 L448.51,214.75 L450.63,215.93 L452.75,217.12 L454.87,218.32 L456.99,219.52 L459.11,220.72 L461.22,221.93 L463.33,223.13 L465.44,224.35 L467.55,225.56 L469.66,226.78 L471.76,228.00 L473.86,229.22 L475.95,230.45 L478.04,231.67 L480.13,232.90 L482.22,234.13 L484.30,235.37 L486.38,236.60 L488.45,237.84 L490.52,239.08 L492.59,240.31 L494.65,241.55 L496.71,242.79 L498.27,244.69 L499.51,247.03 L500.74,249.36 L501.97,251.69 L503.21,254.03 L504.44,256.37 L505.67,258.70 L506.90,261.04 L508.13,263.38 L509.36,265.72 L510.58,268.05 L511.80,270.39 L513.02,272.73 L514.24,275.06 L515.46,277.40 L516.68,279.74 L517.89,282.08 L519.11,284.42 L520.32,286.76 L521.53,289.10 L522.74,291.44 L523.95,293.78 L525.16,296.11 L526.36,298.45 L527.57,300.79 L528.77,303.13 L529.97,305.47 L531.17,307.81 L532.37,310.15 L533.57,312.49 L534.77,314.83 L535.96,317.16 L537.16,319.50 L538.35,321.84 L539.54,324.17 L540.73,326.51 L541.92,328.85 L543.10,331.18 L544.29,333.52 L545.47,335.85 L546.65,338.19 L547.84,340.52 L549.02,342.85 L549.93,345.29 L550.45,347.90 L550.97,350.50 L551.49,353.10 L552.01,355.71 L552.53,358.31 L553.05,360.91 L553.56,363.51 L554.08,366.12 L554.60,368.72 L555.11,371.32 L555.63,373.92 L556.14,376.52 L556.66,379.12 L557.17,381.72 L557.69,384.32 L558.20,386.92 L558.71,389.51 L559.23,392.11 L559.74,394.71 L560.25,397.31 L560.76,399.90 L561.27,402.50 L561.79,405.10 L562.30,407.69 L562.81,410.29 L563.32,412.88 L563.82,415.47 L564.33,418.07 L564.84,420.66 L565.35,423.25 L565.82,425.84 L566.14,428.39 L566.45,430.94 L566.77,433.49 L567.08,436.04 L567.40,438.59 L567.72,441.14 L568.03,443.69 L568.35,446.24 L568.67,448.79 L568.98,451.34 L569.30,453.89 L569.61,456.44 L569.93,458.99 L570.25,461.54 L570.56,464.09 L570.88,466.64 L571.19,469.19 L571.51,471.74 L571.83,474.29 L572.14,476.83 L572.46,479.38 L572.78,481.93 L573.09,484.48 L573.41,487.03 L573.72,489.58 L574.04,492.13 L574.36,494.67 L574.67,497.22 L574.99,499.77 L575.30,502.32 L575.62,504.87" class="restline"/><path d="M189.38,252.96 L188.42,237.24 L191.35,236.69 L194.29,236.14 L197.22,235.59 L200.15,235.04 L203.09,234.49 L206.02,233.93 L208.95,233.37 L211.89,232.81 L214.82,232.25 L217.75,231.68 L220.68,231.12 L223.61,230.55 L226.54,229.98 L229.47,229.41 L232.40,228.83 L235.33,228.25 L238.25,227.67 L241.18,227.09 L244.11,226.51 L247.03,225.93 L249.96,225.34 L252.88,224.75 L255.81,224.15 L258.73,223.55 L261.65,222.95 L264.57,222.35 L267.49,221.74 L269.86,221.47 L272.10,221.27 L274.33,221.08 L276.56,220.89 L278.79,220.70 L281.04,220.50 L283.28,220.31 L285.53,220.11 L287.77,219.92 L290.01,219.72 L292.24,219.52 L294.47,219.32 L296.71,219.13 L298.94,218.93 L301.17,218.72 L303.41,218.51 L305.65,218.30 L307.89,218.08 L310.13,217.87 L312.37,217.65 L314.60,217.43 L316.83,217.21 L319.06,216.99 L321.30,216.77 L323.53,216.55 L325.76,216.33 L327.99,216.11 L330.23,215.90 L332.46,215.68 L334.69,215.46 L336.93,215.24 L339.16,215.02 L341.39,214.80 L343.63,214.58 L345.86,214.36 L348.10,214.14 L350.33,213.92 L352.56,213.70 L354.80,213.48 L357.03,213.26 L359.26,213.03 L361.50,212.81 L363.73,212.59 L365.96,212.36 L368.20,212.14 L370.42,212.04 L372.59,212.41 L374.76,212.79 L376.93,213.17 L379.10,213.55 L381.27,213.92 L383.44,214.30 L385.61,214.68 L387.78,215.05 L389.95,215.43 L392.12,215.81 L394.29,216.18 L396.46,216.56 L398.64,216.93 L400.81,217.31 L402.98,217.68 L405.15,218.06 L407.32,218.43 L409.49,218.81 L411.66,219.18 L413.84,219.56 L416.01,219.93 L418.19,220.30 L420.36,220.68 L422.54,221.05 L424.71,221.42 L426.89,221.80 L429.06,222.17 L431.24,222.54 L433.41,222.92 L435.59,223.29 L437.76,223.66 L439.69,224.74 L441.61,225.81 L443.54,226.89 L445.46,227.96 L447.39,229.04 L449.31,230.12 L451.24,231.19 L453.16,232.27 L455.09,233.34 L457.01,234.42 L458.94,235.49 L460.86,236.57 L462.79,237.64 L464.71,238.72 L466.64,239.79 L468.57,240.87 L470.49,241.94 L472.42,243.01 L474.34,244.09 L476.27,245.16 L478.20,246.23 L480.12,247.31 L482.05,248.38 L483.98,249.45 L485.90,250.53 L487.83,251.60 L489.31,253.36 L490.49,255.59 L491.66,257.81 L492.84,260.03 L494.02,262.26 L495.20,264.48 L496.38,266.70 L497.56,268.93 L498.74,271.15 L499.92,273.37 L501.09,275.59 L502.27,277.81 L503.44,280.03 L504.62,282.26 L505.79,284.48 L506.97,286.70 L508.14,288.92 L509.32,291.14 L510.49,293.36 L511.67,295.58 L512.85,297.80 L514.02,300.02 L515.20,302.25 L516.37,304.47 L517.55,306.69 L518.72,308.91 L519.90,311.13 L521.07,313.35 L522.25,315.57 L523.42,317.79 L524.60,320.01 L525.78,322.24 L526.95,324.46 L528.13,326.68 L529.30,328.90 L530.48,331.12 L531.65,333.34 L532.83,335.56 L534.01,337.78 L535.18,340.00 L536.36,342.22 L537.53,344.44 L538.71,346.67 L539.63,349.01 L540.17,351.54 L540.72,354.08 L541.26,356.61 L541.80,359.14 L542.35,361.67 L542.89,364.20 L543.43,366.74 L543.97,369.27 L544.52,371.80 L545.06,374.33 L545.60,376.87 L546.15,379.40 L546.69,381.93 L547.23,384.46 L547.77,386.99 L548.32,389.53 L548.86,392.06 L549.40,394.59 L549.95,397.12 L550.49,399.65 L551.03,402.19 L551.58,404.72 L552.12,407.25 L552.66,409.78 L553.21,412.31 L553.75,414.85 L554.29,417.38 L554.84,419.91 L555.38,422.44 L555.92,424.98 L556.43,427.51 L556.79,430.04 L557.15,432.57 L557.52,435.10 L557.88,437.64 L558.24,440.17 L558.60,442.70 L558.97,445.23 L559.33,447.76 L559.69,450.30 L560.06,452.83 L560.42,455.36 L560.78,457.89 L561.14,460.42 L561.51,462.96 L561.87,465.49 L562.23,468.02 L562.59,470.55 L562.96,473.08 L563.32,475.62 L563.68,478.15 L564.05,480.68 L564.41,483.21 L564.77,485.74 L565.13,488.28 L565.50,490.81 L565.86,493.34 L566.22,495.87 L566.59,498.40 L566.95,500.94 L567.31,503.47 L567.68,506.00" class="openline"/><line x1="300.5" y1="130.1" x2="300.5" y2="144.1" class="lead place fric"/><circle cx="300.5" cy="130.1" r="2.4" class="mark place fric"/><text x="300.5" y="154.1" class="lbl place fric" text-anchor="middle">postalveolar</text><line x1="300.7" y1="147.9" x2="300.7" y2="165.9" class="lead art"/><circle cx="300.7" cy="147.9" r="2.4" class="mark art"/><text x="300.7" y="175.9" class="lbl art" text-anchor="middle"><tspan x="300.7" dy="0">tongue-blade</tspan></text><line x1="567.7" y1="506.0" x2="611.8" y2="499.7" class="median"/><line x1="589.7" y1="502.8" x2="589.7" y2="516.8" class="lead art"/><text x="589.7" y="526.8" class="lbl art" text-anchor="middle"><tspan x="589.7" dy="0">vocal folds</tspan><tspan x="589.7" dy="12">voiceless</tspan></text><path d="M181.70,163.48 L188.47,200.15 L200.89,166.86 Z" class="teeth"/><path d="M192.53,245.30 L196.85,229.06 L217.35,240.39 Z" class="teeth"/><path d="M148.19,165.80 L151.16,157.05 L154.41,148.21 L158.43,141.58 L163.48,137.77 L170.13,134.19 L178.03,130.92 L186.72,128.12 L195.67,125.98 L204.34,124.67 L210.72,124.19 L217.10,123.90 L223.50,123.73 L229.83,123.62 L235.99,123.52 L241.87,123.38 L247.65,122.96 L253.64,121.15 L259.42,117.99 L265.02,113.70 L270.48,108.49 L275.84,102.58 L281.13,96.21 L286.38,89.58 L291.63,82.92 L296.91,76.45 L302.26,70.40 L307.71,64.97 L313.28,60.40 L319.02,56.91 L324.96,54.71 L331.27,54.00 L339.08,54.18 L347.18,55.06 L355.49,56.54 L363.91,58.54 L372.37,60.95 L380.79,63.67 L389.08,66.59 L397.17,69.59 L404.91,72.54 L411.35,75.32 L417.66,78.49 L423.90,81.94 L430.09,85.52 L436.28,89.12 L442.51,92.60 L448.88,95.87 L455.97,99.00 L463.24,101.92 L470.47,104.85 L477.43,108.01 L483.87,111.62 L489.99,116.30 L496.03,123.67 L500.56,132.45 L503.31,141.58 L504.33,150.25 L503.89,158.49 L502.73,166.89 L501.37,174.84 L552.39,230.83 L550.94,227.97 L549.49,225.11 L548.03,222.26 L546.56,219.40 L545.09,216.55 L543.61,213.71 L542.13,210.87 L540.64,208.03 L539.15,205.19 L537.19,202.69 L534.54,200.68 L531.86,198.69 L529.16,196.70 L526.44,194.71 L523.69,192.74 L520.92,190.77 L518.13,188.81 L515.32,186.86 L512.49,184.93 L509.63,183.01 L506.76,181.10 L503.87,179.21 L500.97,177.33 L498.05,175.47 L494.72,176.15 L491.02,170.30 L487.49,164.92 L483.74,160.59 L478.74,157.53 L472.73,155.38 L466.87,153.89 L462.07,152.55 L457.35,150.38 L451.79,148.29 L445.89,146.47 L439.83,144.75 L433.80,142.94 L428.01,140.88 L422.03,138.23 L416.09,135.28 L410.21,138.31 L404.34,134.54 L398.44,130.75 L392.48,126.92 L386.40,123.02 L381.27,119.72 L376.12,116.42 L370.92,113.08 L365.72,109.74 L360.56,106.42 L355.47,105.83 L350.49,106.53 L345.67,107.21 L341.03,107.86 L335.41,108.65 L329.83,109.43 L324.40,111.08 L319.09,113.84 L313.87,116.56 L308.71,119.25 L303.57,121.93 L298.43,125.09 L293.26,129.85 L288.03,134.67 L282.70,139.58 L277.25,144.63 L271.65,149.96 L265.87,155.31 L259.88,158.99 L253.13,163.14 L245.81,161.32 L238.25,160.77 L230.57,160.15 L222.86,159.51 L215.23,158.87 L207.90,158.27 L202.20,157.67 L195.92,157.41 L189.52,157.50 L183.47,157.99 L178.30,158.90 L174.63,160.23 L172.60,163.72 L170.94,169.26 L168.94,174.69 Z" class="nasalfill"/><path d="M148.19,165.80 L151.16,157.05 L154.41,148.21 L158.43,141.58 L163.48,137.77 L170.13,134.19 L178.03,130.92 L186.72,128.12 L195.67,125.98 L204.34,124.67 L210.72,124.19 L217.10,123.90 L223.50,123.73 L229.83,123.62 L235.99,123.52 L241.87,123.38 L247.65,122.96 L253.64,121.15 L259.42,117.99 L265.02,113.70 L270.48,108.49 L275.84,102.58 L281.13,96.21 L286.38,89.58 L291.63,82.92 L296.91,76.45 L302.26,70.40 L307.71,64.97 L313.28,60.40 L319.02,56.91 L324.96,54.71 L331.27,54.00 L339.08,54.18 L347.18,55.06 L355.49,56.54 L363.91,58.54 L372.37,60.95 L380.79,63.67 L389.08,66.59 L397.17,69.59 L404.91,72.54 L411.35,75.32 L417.66,78.49 L423.90,81.94 L430.09,85.52 L436.28,89.12 L442.51,92.60 L448.88,95.87 L455.97,99.00 L463.24,101.92 L470.47,104.85 L477.43,108.01 L483.87,111.62 L489.99,116.30 L496.03,123.67 L500.56,132.45 L503.31,141.58 L504.33,150.25 L503.89,158.49 L502.73,166.89 L501.37,174.84 L552.39,230.83 L550.94,227.97 L549.49,225.11 L548.03,222.26 L546.56,219.40 L545.09,216.55 L543.61,213.71 L542.13,210.87 L540.64,208.03 L539.15,205.19 L537.19,202.69 L534.54,200.68 L531.86,198.69 L529.16,196.70 L526.44,194.71 L523.69,192.74 L520.92,190.77 L518.13,188.81 L515.32,186.86 L512.49,184.93 L509.63,183.01 L506.76,181.10 L503.87,179.21 L500.97,177.33 L498.05,175.47" class="nasalside"/><path d="M168.94,174.69 L170.94,169.26 L172.60,163.72 L174.63,160.23 L178.30,158.90 L183.47,157.99 L189.52,157.50 L195.92,157.41 L202.20,157.67 L207.90,158.27 L215.23,158.87 L222.86,159.51 L230.57,160.15 L238.25,160.77 L245.81,161.32 L253.13,163.14 L259.88,158.99 L265.87,155.31 L271.65,149.96 L277.25,144.63 L282.70,139.58 L288.03,134.67 L293.26,129.85 L298.43,125.09 L303.57,121.93 L308.71,119.25 L313.87,116.56 L319.09,113.84 L324.40,111.08 L329.83,109.43 L335.41,108.65 L341.03,107.86 L345.67,107.21 L350.49,106.53 L355.47,105.83 L360.56,106.42 L365.72,109.74 L370.92,113.08 L376.12,116.42 L381.27,119.72 L386.40,123.02 L392.48,126.92 L398.44,130.75 L404.34,134.54 L410.21,138.31 L416.09,135.28 L422.03,138.23 L428.01,140.88 L433.80,142.94 L439.83,144.75 L445.89,146.47 L451.79,148.29 L457.35,150.38 L462.07,152.55 L466.87,153.89 L472.73,155.38 L478.74,157.53 L483.74,160.59 L487.49,164.92 L491.02,170.30 L494.72,176.15" class="nasalside"/><path d="M158.57,170.25 L161.05,163.16 L163.51,155.96 L166.53,150.90 L170.89,148.33 L176.80,146.09 L183.78,144.21 L191.32,142.76 L198.94,141.83 L206.12,141.47 L212.97,141.53 L219.98,141.70 L227.03,141.94 L234.04,142.20 L240.90,142.42 L247.50,142.57 L253.76,142.51 L259.75,141.24 L265.53,138.66 L271.13,134.96 L276.59,130.37 L281.93,125.08 L287.19,119.32 L292.41,113.29 L297.60,107.20 L302.81,101.26 L308.07,95.69 L313.40,90.69 L318.84,86.48 L324.43,83.26 L330.19,81.25 L336.15,80.64 L342.38,81.03 L348.84,81.99 L355.48,83.42 L362.23,85.23 L369.05,87.33 L375.86,89.63 L382.60,92.04 L389.22,94.45 L395.65,96.78 L401.91,99.34 L408.05,102.29 L414.12,105.50 L420.15,108.85 L426.18,112.20 L432.27,115.42 L438.44,118.38 L444.89,120.97 L451.53,123.33 L458.18,125.66 L464.61,128.15 L470.61,131.00 L476.03,134.43 L481.45,138.78 L486.64,143.91 L491.03,149.55 L494.03,155.42 L495.69,161.71 L496.87,168.59 L498.04,175.50" class="nasalmid"/><line x1="158.6" y1="170.2" x2="158.6" y2="186.2" class="lead nasal"/><text x="158.6" y="196.2" class="lbl nasal" text-anchor="middle"><tspan x="158.6" dy="0">nares</tspan></text><text x="270.5" y="98.5" class="lbl nasal" text-anchor="middle">nasal cavity</text><path d="M439.9,144.9 Q439.9,170.4 498.0,170.4 L498.0,180.6 Q439.9,180.6 439.9,155.1 Z" class="velum"/><line x1="498.0" y1="175.5" x2="498.0" y2="189.5" class="lead art"/><text x="498.0" y="199.5" class="lbl velum" text-anchor="middle"><tspan x="498.0" dy="0">velum</tspan><tspan x="498.0" dy="12">port sealed</tspan></text><path d="M224.09,193.22 L226.87,194.66 L229.71,193.71 L232.56,192.84 L235.43,192.05 L238.33,191.34 L241.24,190.71 L244.18,190.15 L254.24,186.67 L257.29,184.53 L260.35,182.40 L263.36,180.25 L266.25,178.04 L268.83,175.80 L271.29,173.45 L273.67,171.05 L276.01,168.68 L278.33,166.42 L280.64,164.27 L282.92,162.12 L285.16,160.00 L287.39,157.93 L289.60,155.93 L291.80,154.02 L294.00,152.24 L296.21,150.61 L298.43,149.15 L300.66,147.86 L302.91,146.66 L305.16,145.54 L307.42,144.49 L309.68,143.54 L311.94,142.70 L314.19,141.98 L316.45,141.40 L318.71,140.95 L320.97,140.66 L323.22,140.53 L325.47,140.58 L327.71,140.79 L329.96,141.08 L332.20,141.44 L334.44,141.86 L336.67,142.35 L338.91,142.91 L341.15,143.53 L343.38,144.22 L345.62,144.98 L347.85,145.80 L350.09,146.69 L352.32,147.64 L354.56,148.66 L356.79,149.73 L359.03,150.86 L361.27,152.11 L363.51,153.49 L365.75,155.00 L367.99,156.62 L370.22,158.38 L372.43,160.44 L374.63,162.56 L376.84,164.73 L379.05,166.95 L381.25,169.18 L383.45,171.42 L385.65,173.66 L387.85,175.88 L390.04,178.07 L392.24,180.23 L394.43,182.34 L396.62,184.40 L398.81,186.39 L401.00,188.32 L403.18,190.18 L405.37,191.96 L407.55,193.67 L409.74,195.29 L411.92,196.83 L417.77,198.21 L420.10,199.38 L422.42,200.53 L424.72,201.65 L427.00,202.73 L429.28,203.79 L431.55,204.81 L433.80,205.80 L436.06,206.75 L438.30,207.66 L440.55,208.54 L442.79,209.38 L444.81,210.93 L446.84,212.44 L448.87,213.91 L450.90,215.34 L452.94,216.73 L454.99,218.09 L457.06,219.41 L459.14,220.69 L461.23,221.93 L463.34,223.15 L465.45,224.36 L467.56,225.57 L469.66,226.79 L471.76,228.01 L473.86,229.23 L475.96,230.45 L478.05,231.68 L480.14,232.91 L482.23,234.14 L484.31,235.37 L486.39,236.60 L488.46,237.84 L490.53,239.08 L492.60,240.32 L494.66,241.56 L496.72,242.80 L498.28,244.69 L499.51,247.03 L500.75,249.36 L501.98,251.69 L503.21,254.03 L504.45,256.37 L505.68,258.70 L506.91,261.04 L508.13,263.38 L509.36,265.71 L510.59,268.05 L511.81,270.39 L513.03,272.73 L514.25,275.06 L515.47,277.40 L516.68,279.74 L517.90,282.08 L519.11,284.42 L520.32,286.76 L521.54,289.10 L522.75,291.43 L523.96,293.77 L525.16,296.11 L526.37,298.45 L527.57,300.79 L528.78,303.13 L529.98,305.47 L531.18,307.81 L532.38,310.15 L533.58,312.49 L534.77,314.82 L535.97,317.16 L537.16,319.50 L538.36,321.84 L539.55,324.17 L540.74,326.51 L541.92,328.84 L543.11,331.18 L544.30,333.51 L545.48,335.85 L546.66,338.18 L547.35,340.70 L547.92,343.26 L548.22,345.91 L548.13,348.72 L548.05,351.52 L547.96,354.31 L547.88,357.09 L547.80,359.87 L547.73,362.64 L547.66,365.39 L547.59,368.14 L547.52,370.88 L547.46,373.61 L547.39,376.34 L547.34,379.05 L547.28,381.76 L547.23,384.46 L547.23,384.46 L546.69,381.93 L546.15,379.40 L545.60,376.87 L545.06,374.33 L544.52,371.80 L543.97,369.27 L543.43,366.74 L542.89,364.20 L542.35,361.67 L541.80,359.14 L541.26,356.61 L540.72,354.08 L540.17,351.54 L539.63,349.01 L538.71,346.67 L537.53,344.44 L536.36,342.22 L535.18,340.00 L534.01,337.78 L532.83,335.56 L531.65,333.34 L530.48,331.12 L529.30,328.90 L528.13,326.68 L526.95,324.46 L525.78,322.24 L524.60,320.01 L523.42,317.79 L522.25,315.57 L521.07,313.35 L519.90,311.13 L518.72,308.91 L517.55,306.69 L516.37,304.47 L515.20,302.25 L514.02,300.02 L512.85,297.80 L511.67,295.58 L510.49,293.36 L509.32,291.14 L508.14,288.92 L506.97,286.70 L505.79,284.48 L504.62,282.26 L503.44,280.03 L502.27,277.81 L501.09,275.59 L499.92,273.37 L498.74,271.15 L497.56,268.93 L496.38,266.70 L495.20,264.48 L494.02,262.26 L492.84,260.03 L491.66,257.81 L490.49,255.59 L489.31,253.36 L487.83,251.60 L485.90,250.53 L483.98,249.45 L482.05,248.38 L480.12,247.31 L478.20,246.23 L476.27,245.16 L474.34,244.09 L472.42,243.01 L470.49,241.94 L468.57,240.87 L466.64,239.79 L464.71,238.72 L462.79,237.64 L460.86,236.57 L458.94,235.49 L457.01,234.42 L455.09,233.34 L453.16,232.27 L451.24,231.19 L449.31,230.12 L447.39,229.04 L445.46,227.96 L443.54,226.89 L441.61,225.81 L439.69,224.74 L437.76,223.66 L435.59,223.29 L433.41,222.92 L431.24,222.54 L429.06,222.17 L426.89,221.80 L424.71,221.42 L422.54,221.05 L420.36,220.68 L418.19,220.30 L416.01,219.93 L413.84,219.56 L411.66,219.18 L409.49,218.81 L407.32,218.43 L405.15,218.06 L402.98,217.68 L400.81,217.31 L398.64,216.93 L396.46,216.56 L394.29,216.18 L392.12,215.81 L389.95,215.43 L387.78,215.05 L385.61,214.68 L383.44,214.30 L381.27,213.92 L379.10,213.55 L376.93,213.17 L374.76,212.79 L372.59,212.41 L370.42,212.04 L368.20,212.14 L365.96,212.36 L363.73,212.59 L361.50,212.81 L359.26,213.03 L357.03,213.26 L354.80,213.48 L352.56,213.70 L350.33,213.92 L348.10,214.14 L345.86,214.36 L343.63,214.58 L341.39,214.80 L339.16,215.02 L336.93,215.24 L334.69,215.46 L332.46,215.68 L330.23,215.90 L327.99,216.11 L325.76,216.33 L323.53,216.55 L321.30,216.77 L319.06,216.99 L316.83,217.21 L314.60,217.43 L312.37,217.65 L310.13,217.87 L307.89,218.08 L305.65,218.30 L303.41,218.51 L301.17,218.72 L298.94,218.93 L296.71,219.13 L294.47,219.32 L292.24,219.52 L290.01,219.72 L287.77,219.92 L285.53,220.11 L283.28,220.31 L281.04,220.50 L278.79,220.70 L276.56,220.89 L274.33,221.08 L272.10,221.27 L269.86,221.47 L267.49,221.74 L264.57,222.35 L261.65,222.95 L258.73,223.55 L255.81,224.15 L252.88,224.75 L249.96,225.34 L247.03,225.93 L244.11,226.51 L241.18,227.09 L238.25,227.67 L235.33,228.25 Q224.09,214.33 224.09,193.22 Z" class="tonguebody"/><path d="M224.09,193.22 L226.87,194.66 L229.71,193.71 L232.56,192.84 L235.43,192.05 L238.33,191.34 L241.24,190.71 L244.18,190.15 L254.24,186.67 L257.29,184.53 L260.35,182.40 L263.36,180.25 L266.25,178.04 L268.83,175.80 L271.29,173.45 L273.67,171.05 L276.01,168.68 L278.33,166.42 L280.64,164.27 L282.92,162.12 L285.16,160.00 L287.39,157.93 L289.60,155.93 L291.80,154.02 L294.00,152.24 L296.21,150.61 L298.43,149.15 L300.66,147.86 L302.91,146.66 L305.16,145.54 L307.42,144.49 L309.68,143.54 L311.94,142.70 L314.19,141.98 L316.45,141.40 L318.71,140.95 L320.97,140.66 L323.22,140.53 L325.47,140.58 L327.71,140.79 L329.96,141.08 L332.20,141.44 L334.44,141.86 L336.67,142.35 L338.91,142.91 L341.15,143.53 L343.38,144.22 L345.62,144.98 L347.85,145.80 L350.09,146.69 L352.32,147.64 L354.56,148.66 L356.79,149.73 L359.03,150.86 L361.27,152.11 L363.51,153.49 L365.75,155.00 L367.99,156.62 L370.22,158.38 L372.43,160.44 L374.63,162.56 L376.84,164.73 L379.05,166.95 L381.25,169.18 L383.45,171.42 L385.65,173.66 L387.85,175.88 L390.04,178.07 L392.24,180.23 L394.43,182.34 L396.62,184.40 L398.81,186.39 L401.00,188.32 L403.18,190.18 L405.37,191.96 L407.55,193.67 L409.74,195.29 L411.92,196.83 L417.77,198.21 L420.10,199.38 L422.42,200.53 L424.72,201.65 L427.00,202.73 L429.28,203.79 L431.55,204.81 L433.80,205.80 L436.06,206.75 L438.30,207.66 L440.55,208.54 L442.79,209.38 L444.81,210.93 L446.84,212.44 L448.87,213.91 L450.90,215.34 L452.94,216.73 L454.99,218.09 L457.06,219.41 L459.14,220.69 L461.23,221.93 L463.34,223.15 L465.45,224.36 L467.56,225.57 L469.66,226.79 L471.76,228.01 L473.86,229.23 L475.96,230.45 L478.05,231.68 L480.14,232.91 L482.23,234.14 L484.31,235.37 L486.39,236.60 L488.46,237.84 L490.53,239.08 L492.60,240.32 L494.66,241.56 L496.72,242.80 L498.28,244.69 L499.51,247.03 L500.75,249.36 L501.98,251.69 L503.21,254.03 L504.45,256.37 L505.68,258.70 L506.91,261.04 L508.13,263.38 L509.36,265.71 L510.59,268.05 L511.81,270.39 L513.03,272.73 L514.25,275.06 L515.47,277.40 L516.68,279.74 L517.90,282.08 L519.11,284.42 L520.32,286.76 L521.54,289.10 L522.75,291.43 L523.96,293.77 L525.16,296.11 L526.37,298.45 L527.57,300.79 L528.78,303.13 L529.98,305.47 L531.18,307.81 L532.38,310.15 L533.58,312.49 L534.77,314.82 L535.97,317.16 L537.16,319.50 L538.36,321.84 L539.55,324.17 L540.74,326.51 L541.92,328.84 L543.11,331.18 L544.30,333.51 L545.48,335.85 L546.66,338.18 L547.35,340.70 L547.92,343.26 L548.22,345.91 L548.13,348.72 L548.05,351.52 L547.96,354.31 L547.88,357.09 L547.80,359.87 L547.73,362.64 L547.66,365.39 L547.59,368.14 L547.52,370.88 L547.46,373.61 L547.39,376.34 L547.34,379.05 L547.28,381.76 L547.23,384.46" class="tongue"/><circle cx="300.7" cy="147.9" r="5" class="constriction"/><text x="300.7" y="126.9" class="lbl constriction" text-anchor="middle"><tspan x="300.7" dy="0">tongue blade</tspan><tspan x="300.7" dy="12">0.20 open</tspan></text><path d="M569.44,518.36 L574.74,504.99 L565.91,493.64 Z" class="fold"/><path d="M613.57,512.05 L604.75,500.70 L610.04,487.34 Z" class="fold"/><circle cx="351.1" cy="544.0" r="4.5" class="chip out-of-plane"/><text x="387.0" y="548.0" class="lbl chiplbl" text-anchor="middle">sibilant</text><path d="M143.7,145.3 L145.7,153.1 Q156.4,158.8 163.2,148.7 L161.3,140.9" class="lip upper-lip"/><path d="M171.9,257.4 L169.9,249.5 Q176.7,239.4 187.4,245.1 L189.4,253.0" class="lip lower-lip"/><text x="176.7" y="265.4" class="lbl lip" text-anchor="middle">lips</text><text x="734" y="44" class="glyph" text-anchor="end">ʃ</text><text x="734" y="64" class="lbl caption" text-anchor="end">voiceless sibilant postalveolar fricative</text><text x="734" y="84" class="lbl feat" text-anchor="end"><tspan class="featkey">channel</tspan> grooved</text><text x="734" y="99" class="lbl feat" text-anchor="end"><tspan class="featkey">manner</tspan> fricative</text><text x="734" y="114" class="lbl feat" text-anchor="end"><tspan class="featkey">place</tspan> postalveolar</text></svg>